<svg width="86" height="86" viewBox="0 0 86 86" fill="none" xmlns="http://www.w3.org/2000/svg">
<path fill-rule="evenodd" clip-rule="evenodd" d="M20.1563 39.7186V56.5934L18.5186 56.6414L16.8809 56.6895L16.8352 59.9229L16.7897 63.1562H42.9123H69.0352V59.8809V56.6055H67.4395H65.8438V39.7246V22.8438H43H20.1563V39.7186ZM62.8203 39.7246V53.582H43H23.1797V39.8366V26.0911L23.2917 25.9792L23.4036 25.8672H43.1121H62.8203V39.7246ZM43.2095 30.8643L43.0387 31.6621L41.3397 40.1645L39.6406 48.6668V48.8238V48.9807L41.1001 49.262L42.5596 49.5434L42.6169 49.4859L42.6743 49.4287L43.169 46.7601L43.6638 44.0918L45.0103 37.3856L46.3567 30.6797L46.2831 30.6061L46.2096 30.5325L45.1507 30.3053L44.0918 30.0782L43.7362 30.0723L43.3805 30.0664L43.2095 30.8643ZM31.0737 35.6939L26.9607 39.8094L31.0326 43.8813L35.1043 47.9531L36.2376 46.8198L37.3709 45.6865L34.3911 42.7067L31.4114 39.727L34.3904 36.7442L37.3697 33.7615L36.2782 32.6699L35.1866 31.5785L31.0737 35.6939ZM49.7591 32.7942L48.711 33.8423L51.6907 36.8255L54.6703 39.8086L51.7344 42.748L48.7985 45.6877L49.8466 46.7358L50.8949 47.7841L54.926 43.7557L58.9571 39.7271L54.9691 35.7367L50.9812 31.7461H50.8942H50.8072L49.7591 32.7942Z" fill="#D1E8FF"/>
<path fill-rule="evenodd" clip-rule="evenodd" d="M33.1318 25.9932L23.1797 26.0378V39.8099V53.582H43H62.8203V39.7246V25.8672L52.9521 25.9078L43.084 25.9485L33.1318 25.9932ZM45.1507 30.3053L46.2095 30.5325L46.2893 30.6121L46.369 30.6919L44.6945 39.1555L43.0198 47.6191L42.9111 48.3893L42.8023 49.1592L42.673 49.3684L42.5438 49.5775L41.0922 49.2893L39.6406 49.0009V48.7182V48.4353L41.3949 39.6957L43.149 30.9563L43.2607 30.5114L43.3724 30.0664L43.732 30.0723L44.0918 30.0782L45.1507 30.3053ZM34.3904 36.7442L31.4113 39.727L34.3911 42.7067L37.3709 45.6865L36.2376 46.8198L35.1043 47.9531L31.0326 43.8813L26.9607 39.8094L31.0737 35.6939L35.1866 31.5785L36.2782 32.6699L37.3697 33.7615L34.3904 36.7442ZM54.9691 35.7367L58.957 39.7271L54.8808 43.8009L50.8045 47.8746L49.7189 46.7795L48.6335 45.6843L51.6118 42.7027L54.59 39.7211L51.6517 36.7865L48.7136 33.8521L49.7572 32.7991L50.8008 31.7461H50.891H50.9812L54.9691 35.7367Z" fill="#294B6E"/>
<path fill-rule="evenodd" clip-rule="evenodd" d="M37.625 0.254809L35.8613 0.473168L34.0977 0.841859L32.334 1.21038L30.4568 1.77778L28.5794 2.34518L27.2654 2.86118L25.9512 3.37735L23.7538 4.4552L21.5564 5.53306L19.3026 7.03168L17.0488 8.53013L15.4531 9.87186L13.8574 11.2134L12.0845 13.0394L10.3114 14.8652L9.24164 16.209L8.17185 17.5527L6.84741 19.5684L5.52298 21.584L4.45016 23.7676L3.37735 25.9512L2.86118 27.2654L2.34518 28.5794L1.77442 30.4623L1.20383 32.3451L0.774672 34.5231L0.345512 36.7012L0.17284 38.3323L0 39.9633V43V46.0367L0.17284 47.6677L0.345512 49.2988L0.774672 51.4769L1.20383 53.6549L1.77442 55.5377L2.34518 57.4206L2.86118 58.7346L3.37735 60.0488L4.45016 62.2324L5.52298 64.416L6.84741 66.4316L8.17185 68.4473L9.24164 69.791L10.3114 71.1348L12.0845 72.9606L13.8574 74.7866L15.4531 76.1281L17.0488 77.4699L19.3026 78.9683L21.5564 80.4669L23.7538 81.5448L25.9512 82.6227L27.2654 83.1388L28.5794 83.6548L30.4623 84.2256L32.3451 84.7962L34.5231 85.2253L36.7012 85.6545L38.3323 85.8272L39.9633 86H43H46.0367L47.6677 85.8272L49.2988 85.6545L51.4769 85.2253L53.6549 84.7962L55.5377 84.2256L57.4206 83.6548L58.7346 83.1388L60.0488 82.6227L62.2462 81.5448L64.4436 80.4669L66.6974 78.9683L68.9512 77.4699L70.5469 76.1281L72.1426 74.7866L73.9155 72.9606L75.6886 71.1348L76.7584 69.791L77.8282 68.4473L79.1526 66.4316L80.477 64.416L81.5498 62.2324L82.6227 60.0488L83.1388 58.7346L83.6548 57.4206L84.2256 55.5377L84.7962 53.6549L85.2253 51.4769L85.6545 49.2988L85.8272 47.6677L86 46.0367V43V39.9633L85.8272 38.3323L85.6545 36.7012L85.2253 34.5231L84.7962 32.3451L84.2256 30.4623L83.6548 28.5794L83.1388 27.2654L82.6227 25.9512L81.5498 23.7676L80.477 21.584L79.1526 19.5684L77.8282 17.5527L76.7584 16.209L75.6886 14.8652L73.9155 13.0394L72.1426 11.2134L70.5469 9.87186L68.9512 8.53013L66.6974 7.03168L64.4436 5.53306L62.2462 4.4552L60.0488 3.37735L58.7346 2.86118L57.4206 2.34518L55.5377 1.77442L53.6549 1.20383L51.4769 0.774672L49.2988 0.345512L47.6677 0.17284L46.0367 0L42.7126 0.0181406L39.3887 0.0364492L37.625 0.254809ZM65.8438 39.7246V56.6055H67.4395H69.0352V59.8809V63.1562H42.9123H16.7897L16.8352 59.9229L16.8809 56.6895L18.5186 56.6414L20.1562 56.5934V39.7186V22.8438H43H65.8438V39.7246ZM28.2728 25.9932L33.2818 26.0402L38.183 25.993L43.084 25.946H33.1738H23.2637L28.2728 25.9932ZM43.168 30.6543V30.7383H43.252H43.3359V30.6543V30.5703H43.252H43.168V30.6543ZM43 31.4941V31.5781H43.084H43.168V31.4941V31.4102H43.084H43V31.4941ZM45.6875 33.6777V33.7617H45.7715H45.8555V33.6777V33.5938H45.7715H45.6875V33.6777ZM45.5195 34.5176V34.6016H45.6035H45.6875V34.5176V34.4336H45.6035H45.5195V34.5176ZM45.3516 35.3574V35.4414H45.4355H45.5195V35.3574V35.2734H45.4355H45.3516V35.3574ZM42.1602 35.5254V35.6094H42.2441H42.3281V35.5254V35.4414H42.2441H42.1602V35.5254ZM45.1836 36.1973V36.2812H45.2676H45.3516V36.1973V36.1133H45.2676H45.1836V36.1973ZM41.9922 36.3652V36.4492H42.0762H42.1602V36.3652V36.2812H42.0762H41.9922V36.3652ZM45.0156 37.0371V37.1211H45.0996H45.1836V37.0371V36.9531H45.0996H45.0156V37.0371ZM41.8242 37.2051V37.2891H41.9082H41.9922V37.2051V37.1211H41.9082H41.8242V37.2051ZM44.8477 37.877V37.9609H44.9316H45.0156V37.877V37.793H44.9316H44.8477V37.877ZM41.6562 38.0449V38.1289H41.7402H41.8242V38.0449V37.9609H41.7402H41.6562V38.0449ZM44.6797 38.7168V38.8008H44.7637H44.8477V38.7168V38.6328H44.7637H44.6797V38.7168ZM41.4883 38.8848V38.9688H41.5723H41.6562V38.8848V38.8008H41.5723H41.4883V38.8848ZM44.5117 39.5566V39.6406H44.5957H44.6797V39.5566V39.4727H44.5957H44.5117V39.5566ZM41.3203 39.7246V39.8086H41.4043H41.4883V39.7246V39.6406H41.4043H41.3203V39.7246ZM51.5662 42.7482L48.6303 45.6877L49.8027 46.8215L50.9752 47.9551L49.8884 46.8198L48.8016 45.6845L51.7359 42.7465L54.6703 39.8086H54.5863H54.5023L51.5662 42.7482ZM44.3438 40.3965V40.4805H44.4277H44.5117V40.3965V40.3125H44.4277H44.3438V40.3965ZM41.1523 40.5645V40.6484H41.2363H41.3203V40.5645V40.4805H41.2363H41.1523V40.5645ZM44.1758 41.2363V41.3203H44.2598H44.3438V41.2363V41.1523H44.2598H44.1758V41.2363ZM40.9844 41.4043V41.4883H41.0684H41.1523V41.4043V41.3203H41.0684H40.9844V41.4043ZM44.0078 42.0762V42.1602H44.0918H44.1758V42.0762V41.9922H44.0918H44.0078V42.0762ZM40.8164 42.2441V42.3281H40.9004H40.9844V42.2441V42.1602H40.9004H40.8164V42.2441ZM43.8398 42.916V43H43.9238H44.0078V42.916V42.832H43.9238H43.8398V42.916ZM40.6484 43.084V43.168H40.7324H40.8164V43.084V43H40.7324H40.6484V43.084ZM43.6719 43.7559V43.8398H43.7559H43.8398V43.7559V43.6719H43.7559H43.6719V43.7559ZM40.4805 43.9238V44.0078H40.5645H40.6484V43.9238V43.8398H40.5645H40.4805V43.9238ZM43.5039 44.5957V44.6797H43.5879H43.6719V44.5957V44.5117H43.5879H43.5039V44.5957ZM40.3125 44.7637V44.8477H40.3965H40.4805V44.7637V44.6797H40.3965H40.3125V44.7637ZM43.3359 45.4355V45.5195H43.4199H43.5039V45.4355V45.3516H43.4199H43.3359V45.4355ZM40.1445 45.6035V45.6875H40.2285H40.3125V45.6035V45.5195H40.2285H40.1445V45.6035ZM43.168 46.2754V46.3594H43.252H43.3359V46.2754V46.1914H43.252H43.168V46.2754ZM39.9766 46.4434V46.5273H40.0605H40.1445V46.4434V46.3594H40.0605H39.9766V46.4434ZM39.8086 47.2832V47.3672H39.8926H39.9766V47.2832V47.1992H39.8926H39.8086V47.2832ZM39.6406 48.123V48.207H39.7246H39.8086V48.123V48.0391H39.7246H39.6406V48.123ZM42.832 48.291V48.375H42.916H43V48.291V48.207H42.916H42.832V48.291ZM40.3125 49.1309V49.2148H40.3965H40.4805V49.1309V49.0469H40.3965H40.3125V49.1309ZM42.6641 49.1309V49.2148H42.748H42.832V49.1309V49.0469H42.748H42.6641V49.1309ZM41.1523 49.2988V49.3828H41.2363H41.3203V49.2988V49.2148H41.2363H41.1523V49.2988ZM41.9922 49.4668V49.5508H42.0762H42.1602V49.4668V49.3828H42.0762H41.9922V49.4668Z" fill="#121212"/>
</svg>
