<svg width="39" height="39" viewBox="0 0 39 39" fill="none" xmlns="http://www.w3.org/2000/svg">
<path fill-rule="evenodd" clip-rule="evenodd" d="M8.94841 4.4161C5.31019 7.01636 2.74319 10.7129 1.58241 15.0233C0.497812 19.0508 0.742436 23.0778 2.31758 27.1263C2.75686 28.2555 4.16105 30.6876 4.91929 31.6326C7.63607 35.0188 10.9748 37.2284 15.0198 38.3172C19.0474 39.4014 23.0747 39.1564 27.1236 37.5809C28.2529 37.1415 30.6853 35.7372 31.6304 34.9789C35.017 32.2619 37.2271 28.9232 38.3164 24.8783C39.401 20.8508 39.1564 16.8238 37.5812 12.7753C37.1419 11.6461 35.7377 9.21398 34.9795 8.26896C32.2627 4.8828 28.924 2.67319 24.879 1.58437C20.8787 0.507554 16.7997 0.748545 12.8463 2.29524C11.9714 2.63758 9.73254 3.85574 8.94841 4.4161ZM12.5402 9.34794L14.4594 12.6721L13.742 13.028C12.1671 13.8094 9.38632 14.8881 9.30593 14.7489C9.07556 14.3499 8.27721 10.7209 8.01905 8.89941L7.92345 8.22502L8.40225 7.75777C8.97742 7.19652 9.82929 6.50444 10.2873 6.22645L10.621 6.02383L12.5402 9.34794ZM13.8077 4.3197C14.2168 4.15814 14.8342 3.94651 15.1796 3.8495L15.8075 3.67313L16.3438 4.09313C17.7921 5.22742 20.5357 7.73331 20.7661 8.13231C20.8465 8.27156 18.5219 10.1404 17.0578 11.1137L16.3909 11.557L14.4717 8.23279L12.5525 4.90868L12.8081 4.76111C12.9486 4.67997 13.3985 4.48136 13.8077 4.3197ZM6.27489 11.8162C6.41439 12.5029 6.66733 13.5831 6.837 14.2169C7.00667 14.8507 7.14503 15.3788 7.1445 15.3905C7.14019 15.4831 3.70238 16.046 3.65387 15.962C3.57199 15.8202 4.35446 13.6329 4.8526 12.6112C5.09724 12.1094 5.94957 10.6092 6.00977 10.5745C6.01601 10.5709 6.13536 11.1297 6.27489 11.8162ZM21.052 3.20261C22.3513 3.28838 24.6986 3.72701 24.6559 3.87605C24.61 4.03637 22.4636 6.61299 22.4024 6.58126C22.3921 6.57589 22.0039 6.19202 21.5399 5.72819C21.0759 5.26437 20.2651 4.50368 19.7382 4.03776L18.7802 3.19063L19.5138 3.17008C19.9173 3.15877 20.6095 3.17344 21.052 3.20261ZM6.63854 17.7862C7.27325 17.6588 7.80506 17.5563 7.8204 17.5581C7.83566 17.5601 7.95586 17.8548 8.08736 18.2131C8.49902 19.3347 9.15197 20.8492 9.73269 22.0298C10.0402 22.6548 10.3813 23.3559 10.4909 23.5877L10.6899 24.0092L7.79778 25.679L4.90569 27.3488L4.77107 27.1156C4.35584 26.3964 3.70679 24.4332 3.45155 23.1241C3.25025 22.0918 3.11042 20.0603 3.17265 19.0721L3.22082 18.3076L4.35266 18.1626C4.97517 18.0828 6.00383 17.9135 6.63854 17.7862ZM28.1549 5.28884C29.5476 6.07889 31.0667 7.25882 32.093 8.34757C32.6762 8.96633 33.5368 10.0304 33.7435 10.3884L33.8781 10.6216L30.986 12.2913L28.0938 13.9611L27.8283 13.5779C27.6824 13.3672 27.2458 12.7212 26.8582 12.1424C26.1262 11.0492 25.141 9.72642 24.3755 8.80912C24.1309 8.51608 23.9357 8.2645 23.9416 8.25013C23.9476 8.23578 24.3137 7.81274 24.7553 7.31006C25.1969 6.80739 25.854 6.00525 26.2156 5.52756L26.8731 4.659L27.2562 4.82764C27.4669 4.92043 27.8713 5.12793 28.1549 5.28884ZM11.0523 16.5843C12.1585 16.1991 13.2148 15.7549 14.4659 15.1489L15.5783 14.6101L17.0022 17.0764L18.4261 19.5427L15.525 21.2177L12.6239 22.8927L12.4077 22.4381C12.2888 22.188 12.0333 21.6693 11.8399 21.2853C11.3903 20.3926 10.8407 19.1328 10.3672 17.9092C10.0145 16.9976 10.0026 16.9426 10.1481 16.8954C10.2327 16.868 10.6396 16.728 11.0523 16.5843ZM22.9718 10.6309C23.7953 11.6534 24.6115 12.7591 25.1598 13.595C25.3957 13.9545 25.7172 14.4352 25.8743 14.6631L26.1599 15.0776L23.2588 16.7526L20.3576 18.4276L18.9336 15.9612L17.5096 13.4947L18.5429 12.7939C19.6605 12.0359 20.8527 11.1197 21.7093 10.3607C22.006 10.0977 22.2655 9.86975 22.2859 9.85393C22.3063 9.83819 22.615 10.1879 22.9718 10.6309ZM12.0705 26.3237C12.2165 26.5345 12.653 27.1804 13.0406 27.7592C13.7726 28.8524 14.7578 30.1752 15.5233 31.0925C15.7678 31.3855 15.963 31.637 15.957 31.6512C15.951 31.6654 15.5962 32.0746 15.1686 32.5607C14.741 33.0467 14.08 33.8528 13.6997 34.3521L13.0082 35.2598L12.322 34.9192C11.4351 34.479 9.74569 33.3422 8.95232 32.6517C7.94624 31.7761 6.57057 30.2324 6.15533 29.5132L6.02071 29.28L8.9128 27.6103L11.805 25.9405L12.0705 26.3237ZM20.9651 23.9403L22.389 26.4066L21.3662 27.1006C20.0043 28.0246 18.8457 28.9291 17.6947 29.9667C17.5811 30.0691 17.5395 30.0313 16.9264 29.27C16.1034 28.2482 15.2872 27.1423 14.7389 26.3066C14.5031 25.9471 14.1816 25.4664 14.0245 25.2385L13.7389 24.824L16.64 23.149L19.5412 21.474L20.9651 23.9403ZM27.4911 17.4635C27.6099 17.7135 27.8655 18.2323 28.0589 18.6163C28.5085 19.509 29.0581 20.7688 29.5316 21.9924C29.8843 22.904 29.8962 22.959 29.7507 23.0062C28.2767 23.4841 26.914 24.0353 25.4329 24.7527L24.3205 25.2915L22.8966 22.8252L21.4727 20.3589L24.3738 18.6839L27.2749 17.0089L27.4911 17.4635ZM35.1277 12.786C35.543 13.5052 36.192 15.4684 36.4472 16.7775C36.6485 17.8098 36.7884 19.8413 36.7261 20.8295L36.678 21.594L35.5461 21.739C34.9236 21.8188 33.895 21.9881 33.2602 22.1154C32.6255 22.2428 32.0937 22.3453 32.0784 22.3435C32.0631 22.3415 31.9429 22.0468 31.8114 21.6885C31.3998 20.5669 30.7468 19.0524 30.1661 17.8718C29.8586 17.2468 29.5175 16.5457 29.4079 16.3139L29.2089 15.8924L32.101 14.2226L34.9931 12.5528L35.1277 12.786ZM25.4322 31.6776L27.3463 34.9929L27.0907 35.1405C26.7086 35.3611 25.4315 35.852 24.7192 36.0521L24.0912 36.2285L23.555 35.8085C22.1067 34.6742 19.363 32.1683 19.1327 31.7693C19.0418 31.6119 21.8264 29.4087 23.1544 28.5872L23.5181 28.3622L25.4322 31.6776ZM27.7333 26.1473C28.8673 25.6584 30.5474 25.0741 30.5929 25.1527C30.8232 25.5517 31.6216 29.1807 31.8797 31.0022L31.9753 31.6766L31.5086 32.1322C30.9792 32.6491 29.9155 33.5096 29.5334 33.7302L29.2778 33.8778L27.3586 30.5537L25.4394 27.2295L26.1568 26.8736C26.5513 26.6778 27.2608 26.3511 27.7333 26.1473ZM18.2875 34.1074C18.7282 34.5492 19.5455 35.3158 20.1036 35.8108L21.1183 36.711L20.3849 36.7315C19.368 36.76 18.2127 36.6743 17.0923 36.4874C16.1134 36.324 15.2206 36.1014 15.2434 36.0265C15.2862 35.8859 17.2481 33.4938 17.457 33.3275C17.4731 33.3145 17.8469 33.6655 18.2875 34.1074ZM33.6418 24.3106C34.7256 24.0915 36.2104 23.8798 36.2449 23.9396C36.282 24.0038 35.9114 25.2054 35.6169 25.976C35.2861 26.8415 34.7487 27.9308 34.2642 28.7183L33.8797 29.3432L33.6075 28.0143C33.4579 27.2835 33.2026 26.1925 33.0403 25.5899C32.8779 24.9873 32.7465 24.4935 32.7481 24.4925C32.7498 24.4915 33.1519 24.4097 33.6418 24.3106Z" fill="#301E67"/>
</svg>
