<svg width="136" height="77" viewBox="0 0 136 77" fill="none" xmlns="http://www.w3.org/2000/svg">
<g opacity="0.6">
<path fill-rule="evenodd" clip-rule="evenodd" d="M0.116089 38.2827V59.2894L8.05915 59.1906L16.0022 59.0919L17.3812 58.6892L18.7599 58.2866L19.9322 57.6974L21.1043 57.1081L22.1762 56.3267L23.2484 55.5457L24.0765 54.3262L24.9047 53.1066L25.3792 51.6718L25.8537 50.2371L26.003 48.2925L26.1526 46.3482L25.8762 44.7412L25.5997 43.1343L25.054 41.9342L24.5086 40.734L23.5505 39.6946L22.5925 38.6553L21.3267 37.7834L20.0607 36.9116V36.7182V36.5248H20.2794H20.4981L21.8986 35.2281L23.2994 33.9313L23.993 32.5031L24.6869 31.0748L24.9265 29.527L25.1661 27.9789L24.9409 26.3908L24.7157 24.8026L24.3687 23.8196L24.022 22.8367L23.3219 21.8191L22.6217 20.8014L21.7117 20.0806L20.8014 19.3599L19.3295 18.6797L17.8575 17.9994L16.0699 17.6377L14.2823 17.2759H7.19921H0.116089V38.2827ZM37.3357 21.2764L33.3958 25.2769L33.4551 42.2646L33.5147 59.2523H37.4556H41.3968L41.397 50.2657L41.3973 41.279L41.551 29.2774L41.7045 17.2759H41.4903H41.276L37.3357 21.2764ZM49.5138 38.2641V59.2523H60.0659H70.618V55.7736V52.2949H64.1244H57.6308V34.7854V17.2759H53.5723H49.5138V38.2641ZM75.7201 38.281V59.286L83.3153 59.1955L90.9105 59.1051L92.3019 58.7099L93.6934 58.3147L95.1232 57.6192L96.5529 56.9235L97.6993 55.8931L98.8454 54.8624L99.6861 53.2627L100.527 51.6629L101.027 49.7176L101.526 47.7726L101.633 39.8158L101.74 31.8593L101.468 29.4957L101.197 27.1322L100.618 25.3929L100.04 23.6535L99.3468 22.5698L98.6541 21.4858L97.6084 20.522L96.5627 19.5579L94.8894 18.7634L93.2164 17.9688L91.4054 17.6224L89.5941 17.2759H82.6571H75.7201V38.281ZM14.4076 24.4147L15.364 24.9086L15.967 25.6253L16.5697 26.3416L16.832 27.315L17.0941 28.2883L16.9864 29.408L16.8788 30.5277L16.1996 31.4941L15.5205 32.4605L14.2538 33.1077L12.9873 33.755L10.6102 33.8992L8.23308 34.0437V28.8774V23.711L10.8421 23.8159L13.4511 23.9207L14.4076 24.4147ZM90.1551 24.988L91.4239 25.5687L92.0322 26.3664L92.6408 27.164L93.0411 28.1918L93.4413 29.2195L93.5271 37.3365L93.6127 45.4534L93.3411 46.8391L93.0698 48.225L92.6491 49.0423L92.2284 49.8598L91.5696 50.4851L90.9105 51.1105L89.8569 51.5762L88.8035 52.0421L86.3202 52.2026L83.8371 52.3633V38.2655V24.1677L86.3617 24.2873L88.8861 24.407L90.1551 24.988ZM120.305 44.4685L105.637 59.1378V67.7172V76.2966L120.48 61.4555L135.322 46.6144V38.2068V29.7992H135.147H134.973L120.305 44.4685ZM14.8303 41.2628L16.1087 41.8882L16.7763 42.6983L17.444 43.5084L17.7089 44.3917L17.9735 45.2753L17.9633 46.6399L17.9531 48.0045L17.6425 48.8746L17.332 49.7448L16.7269 50.5379L16.1221 51.3313L14.8874 51.9352L13.6529 52.5391L10.943 52.6845L8.23308 52.8297V46.616V40.4026L10.8924 40.5199L13.5518 40.6373L14.8303 41.2628Z" fill="white"/>
<path fill-rule="evenodd" clip-rule="evenodd" d="M105.637 8.69701V17.394L116.07 27.8248L126.502 38.2554L130.861 33.9181L135.221 29.5809L120.429 14.7903L105.637 0V8.69701ZM3.31892 17.2178L6.63761 17.2892L9.81252 17.2175L12.9872 17.1461L6.4936 17.1463L0 17.1466L3.31892 17.2178ZM33.3824 17.343L33.2676 17.6419L33.3316 21.3966L33.3956 25.1516L37.4674 21.0979L41.5391 17.0443H37.5181H33.497L33.3824 17.343ZM51.427 17.2171L53.4562 17.2943L55.4855 17.2171L57.5147 17.1396H53.4562H49.3977L51.427 17.2171ZM78.7928 17.2178L81.9816 17.2892L85.1705 17.2178L88.3593 17.1461H81.9816H75.604L78.7928 17.2178ZM14.8038 17.4309L14.9585 17.5854L15.1131 17.4309L15.2676 17.2762H14.9585H14.6493L14.8038 17.4309ZM90.1759 17.4309L90.3305 17.5854L90.4852 17.4309L90.6397 17.2762H90.3305H90.0214L90.1759 17.4309ZM16.1953 17.6628L16.3499 17.8173L16.5046 17.6628L16.6591 17.5081H16.3499H16.0408L16.1953 17.6628ZM91.5673 17.6628L91.722 17.8173L91.8767 17.6628L92.0312 17.5081H91.722H91.4129L91.5673 17.6628ZM17.1229 17.8947L17.2776 18.0492L17.4323 17.8947L17.5867 17.74H17.2776H16.9685L17.1229 17.8947ZM92.6497 17.856V17.972H92.7656H92.8816V17.856V17.74H92.7656H92.6497V17.856ZM17.9733 18.0879V18.2039H18.0893H18.2053V18.0879V17.972H18.0893H17.9733V18.0879ZM93.3454 18.0879V18.2039H93.4614H93.5773V18.0879V17.972H93.4614H93.3454V18.0879ZM18.6691 18.3198V18.4358H18.785H18.901V18.3198V18.2039H18.785H18.6691V18.3198ZM94.0412 18.3198V18.4358H94.1571H94.2731V18.3198V18.2039H94.1571H94.0412V18.3198ZM19.1329 18.5517V18.6677H19.2489H19.3648V18.5517V18.4358H19.2489H19.1329V18.5517ZM94.505 18.5517V18.6677H94.621H94.7369V18.5517V18.4358H94.621H94.505V18.5517ZM19.5967 18.7837V18.8996H19.7127H19.8287V18.7837V18.6677H19.7127H19.5967V18.7837ZM94.9688 18.7837V18.8996H95.0848H95.2007V18.7837V18.6677H95.0848H94.9688V18.7837ZM20.0606 19.0156V19.1315H20.1765H20.2925V19.0156V18.8996H20.1765H20.0606V19.0156ZM95.4327 19.0156V19.1315H95.5486H95.6646V19.0156V18.8996H95.5486H95.4327V19.0156ZM20.5244 19.2475V19.3634H20.6404H20.7563V19.2475V19.1315H20.6404H20.5244V19.2475ZM95.8965 19.2475V19.3634H96.0124H96.1284V19.2475V19.1315H96.0124H95.8965V19.2475ZM21.3361 19.8273L21.4794 20.0592H21.5954H21.7113L21.568 19.8273L21.4247 19.5954H21.3087H21.1928L21.3361 19.8273ZM96.5922 19.7113V19.8273H96.7082H96.8241V19.7113V19.5954H96.7082H96.5922V19.7113ZM23.0755 21.5666V21.6826H23.1914H23.3074V21.5666V21.4507H23.1914H23.0755V21.5666ZM98.9114 22.0305V22.1464H99.0273H99.1433V22.0305V21.9145H99.0273H98.9114V22.0305ZM23.5393 22.2624V22.3783H23.6552H23.7712V22.2624V22.1464H23.6552H23.5393V22.2624ZM99.3752 22.7262V22.8422H99.4912H99.6071V22.7262V22.6102H99.4912H99.3752V22.7262ZM24.235 23.6539V23.7698H24.351H24.4669V23.6539V23.5379H24.351H24.235V23.6539ZM9.34243 23.941L10.5676 24.0265L11.6616 23.94L12.7553 23.8533L10.4361 23.8545L8.11699 23.8556L9.34243 23.941ZM13.567 24.1177V24.2336H13.6829H13.7989V24.1177V24.0017H13.6829H13.567V24.1177ZM100.071 24.1177V24.2336H100.187H100.303V24.1177V24.0017H100.187H100.071V24.1177ZM24.4669 24.3496V24.4656H24.5829H24.6989V24.3496V24.2336H24.5829H24.4669V24.3496ZM84.8295 24.4043L85.9381 24.4915L86.9168 24.4032L87.8955 24.3146L85.8082 24.316L83.721 24.3171L84.8295 24.4043ZM88.9391 24.5815V24.6975H89.055H89.171V24.5815V24.4656H89.055H88.9391V24.5815ZM100.303 24.5815V24.6975H100.419H100.535V24.5815V24.4656H100.419H100.303V24.5815ZM14.9585 24.8134V24.9294H15.0744H15.1904V24.8134V24.6975H15.0744H14.9585V24.8134ZM89.6348 24.8134V24.9294H89.7508H89.8667V24.8134V24.6975H89.7508H89.6348V24.8134ZM24.6989 25.2772V25.3932H24.8148H24.9308V25.2772V25.1613H24.8148H24.6989V25.2772ZM100.535 25.2772V25.3932H100.651H100.767V25.2772V25.1613H100.651H100.535V25.2772ZM33.3898 42.3229V59.3686L33.4536 50.8458L33.5174 42.3229L33.4536 33.8001L33.3898 25.2772V42.3229ZM91.0263 25.5092V25.6251H91.1422H91.2582V25.5092V25.3932H91.1422H91.0263V25.5092ZM16.118 25.973V26.0889H16.234H16.3499V25.973V25.857H16.234H16.118V25.973ZM100.767 25.973V26.0889H100.883H100.999V25.973V25.857H100.883H100.767V25.973ZM91.9539 26.4368V26.5528H92.0699H92.1859V26.4368V26.3209H92.0699H91.9539V26.4368ZM24.9491 26.9199L24.9674 27.3645L25.0892 27.0602L25.2109 26.7557L25.0708 26.6156L24.9308 26.4755L24.9491 26.9199ZM16.5819 26.9006V27.0166H16.6978H16.8138V26.9006V26.7847H16.6978H16.5819V26.9006ZM100.999 26.9006V27.0166H101.115H101.231V26.9006V26.7847H101.115H100.999V26.9006ZM92.4178 27.1326V27.2485H92.5337H92.6497V27.1326V27.0166H92.5337H92.4178V27.1326ZM92.6497 27.5964V27.7123H92.7656H92.8816V27.5964V27.4804H92.7656H92.6497V27.5964ZM16.8138 27.9443V28.2534L16.9685 28.0989L17.1229 27.9443L16.9685 27.7896L16.8138 27.6351V27.9443ZM101.231 28.1762V28.4853L101.385 28.3309L101.54 28.1762L101.385 28.0215L101.231 27.867V28.1762ZM92.8816 28.2921V28.4081H92.9976H93.1135V28.2921V28.1762H92.9976H92.8816V28.2921ZM24.9491 29.0071L24.9674 29.4517L25.0892 29.1474L25.2109 28.8429L25.0708 28.7029L24.9308 28.5628L24.9491 29.0071ZM93.1135 29.1038V29.413L93.2682 29.2585L93.4227 29.1038L93.2682 28.9491L93.1135 28.7947V29.1038ZM16.8138 29.7996V30.1087L16.9685 29.9543L17.1229 29.7996L16.9685 29.6449L16.8138 29.4904V29.7996ZM101.499 30.0315V30.6113L101.616 30.3214L101.733 30.0315L101.616 29.7416L101.499 29.4517V30.0315ZM24.6989 30.4953V30.8045L24.8535 30.65L25.008 30.4953L24.8535 30.3406L24.6989 30.1862V30.4953ZM93.3454 30.4953V30.8045L93.5001 30.65L93.6546 30.4953L93.5001 30.3406L93.3454 30.1862V30.4953ZM16.5819 30.6113V30.7272H16.6978H16.8138V30.6113V30.4953H16.6978H16.5819V30.6113ZM16.3499 31.0751V31.1911H16.4659H16.5819V31.0751V30.9591H16.4659H16.3499V31.0751ZM24.4669 31.307V31.423H24.5829H24.6989V31.307V31.1911H24.5829H24.4669V31.307ZM15.8861 31.7708V31.8868H16.0021H16.118V31.7708V31.6549H16.0021H15.8861V31.7708ZM15.1904 32.4666V32.5825H15.3063H15.4223V32.4666V32.3506H15.3063H15.1904V32.4666ZM24.0031 32.4666V32.5825H24.1191H24.235V32.4666V32.3506H24.1191H24.0031V32.4666ZM14.4946 32.9304V33.0464H14.6106H14.7265V32.9304V32.8145H14.6106H14.4946V32.9304ZM23.7712 32.9304V33.0464H23.8872H24.0031V32.9304V32.8145H23.8872H23.7712V32.9304ZM13.567 33.3942V33.5102H13.6829H13.7989V33.3942V33.2783H13.6829H13.567V33.3942ZM41.5052 46.2655V59.3686L41.5704 52.8171L41.6358 46.2655L41.5704 39.7139L41.5052 33.1623V46.2655ZM12.8712 33.6262V33.7421H12.9872H13.1031V33.6262V33.5102H12.9872H12.8712V33.6262ZM23.3074 33.6262V33.7421H23.4233H23.5393V33.6262V33.5102H23.4233H23.3074V33.6262ZM8.98667 33.9109L9.85635 34.0021L10.726 33.9109L11.5957 33.82H9.85635H8.11699L8.98667 33.9109ZM20.7563 36.1772V36.2932H20.8723H20.9882V36.1772V36.0613H20.8723H20.7563V36.1772ZM20.0606 36.641V36.757H20.1765H20.2925V36.641V36.5251H20.1765H20.0606V36.641ZM20.2925 37.1049V37.2208H20.4084H20.5244V37.1049V36.9889H20.4084H20.2925V37.1049ZM20.9882 37.5687V37.6847H21.1042H21.2201V37.5687V37.4527H21.1042H20.9882V37.5687ZM21.9159 38.2644V38.3804H22.0318H22.1478V38.2644V38.1485H22.0318H21.9159V38.2644ZM11.6537 40.6211L11.9436 40.7383L12.2335 40.6211L12.5234 40.5043H11.9436H11.3638L11.6537 40.6211ZM24.235 40.5836V40.6995H24.351H24.4669V40.5836V40.4676H24.351H24.235V40.5836ZM13.4123 40.8542L13.567 41.0087L13.7217 40.8542L13.8761 40.6995H13.567H13.2578L13.4123 40.8542ZM14.2627 41.0474V41.1634H14.3787H14.4946V41.0474V40.9315H14.3787H14.2627V41.0474ZM14.7265 41.2793V41.3953H14.8425H14.9585V41.2793V41.1634H14.8425H14.7265V41.2793ZM24.6989 41.2793V41.3953H24.8148H24.9308V41.2793V41.1634H24.8148H24.6989V41.2793ZM15.1904 41.5112V41.6272H15.3063H15.4223V41.5112V41.3953H15.3063H15.1904V41.5112ZM24.9308 41.7432V41.8591H25.0467H25.1627V41.7432V41.6272H25.0467H24.9308V41.7432ZM15.8861 41.9751V42.091H16.0021H16.118V41.9751V41.8591H16.0021H15.8861V41.9751ZM25.1627 42.207V42.3229H25.2786H25.3946V42.207V42.091H25.2786H25.1627V42.207ZM16.8138 42.9027V43.0187H16.9297H17.0457V42.9027V42.7868H16.9297H16.8138V42.9027ZM25.3946 42.9027V43.0187H25.5106H25.6265V42.9027V42.7868H25.5106H25.3946V42.9027ZM17.2776 43.5985V43.7144H17.3936H17.5095V43.5985V43.4825H17.3936H17.2776V43.5985ZM25.6265 43.7144V44.0236L25.7812 43.8691L25.9356 43.7144L25.7812 43.5597L25.6265 43.4053V43.7144ZM17.7414 45.1059V45.4151L17.8961 45.2606L18.0506 45.1059L17.8961 44.9512L17.7414 44.7968V45.1059ZM25.8584 45.1059V45.4151L26.0131 45.2606L26.1676 45.1059L26.0131 44.9512L25.8584 44.7968V45.1059ZM93.3638 45.9369L93.3821 46.3814L93.5038 46.0772L93.6256 45.7727L93.4855 45.6326L93.3454 45.4925L93.3638 45.9369ZM101.481 46.4007L101.499 46.8453L101.621 46.541L101.743 46.2365L101.603 46.0964L101.462 45.9563L101.481 46.4007ZM135.09 46.8453V46.9612H135.206H135.322V46.8453V46.7293H135.206H135.09V46.8453ZM93.1135 47.3091V47.425H93.2295H93.3454V47.3091V47.1931H93.2295H93.1135V47.3091ZM17.7414 48.0048V48.1208H17.8574H17.9733V48.0048V47.8889H17.8574H17.7414V48.0048ZM92.8816 48.2367V48.3527H92.9976H93.1135V48.2367V48.1208H92.9976H92.8816V48.2367ZM101.231 48.3527V48.6618L101.385 48.5074L101.54 48.3527L101.385 48.198L101.231 48.0436V48.3527ZM92.6497 48.7006V48.8165H92.7656H92.8816V48.7006V48.5846H92.7656H92.6497V48.7006ZM17.5095 48.9325V49.0484H17.6255H17.7414V48.9325V48.8165H17.6255H17.5095V48.9325ZM25.8767 49.1837L25.8951 49.6282L26.0168 49.324L26.1386 49.0195L25.9985 48.8794L25.8584 48.7393L25.8767 49.1837ZM17.2776 49.3963V49.5123H17.3936H17.5095V49.3963V49.2804H17.3936H17.2776V49.3963ZM100.999 49.5123V49.8214L101.153 49.667L101.308 49.5123L101.153 49.3576L100.999 49.2031V49.5123ZM92.1859 49.6282V49.7442H92.3018H92.4178V49.6282V49.5123H92.3018H92.1859V49.6282ZM17.0457 49.8601V49.9761H17.1616H17.2776V49.8601V49.7442H17.1616H17.0457V49.8601ZM100.767 50.4399V50.7491L100.921 50.5946L101.076 50.4399L100.921 50.2852L100.767 50.1308V50.4399ZM16.5819 50.5559V50.6718H16.6978H16.8138V50.5559V50.4399H16.6978H16.5819V50.5559ZM25.6265 50.5559V50.6718H25.7425H25.8584V50.5559V50.4399H25.7425H25.6265V50.5559ZM90.7944 51.0197V51.1357H90.9103H91.0263V51.0197V50.9038H90.9103H90.7944V51.0197ZM15.8861 51.2516V51.3676H16.0021H16.118V51.2516V51.1357H16.0021H15.8861V51.2516ZM100.535 51.2516V51.3676H100.651H100.767V51.2516V51.1357H100.651H100.535V51.2516ZM25.3946 51.4835V51.5995H25.5106H25.6265V51.4835V51.3676H25.5106H25.3946V51.4835ZM89.4029 51.7155V51.8314H89.5188H89.6348V51.7155V51.5995H89.5188H89.4029V51.7155ZM88.5525 51.9861L88.7072 52.1406L88.8618 51.9861L89.0163 51.8314H88.7072H88.398L88.5525 51.9861ZM14.2627 52.1793V52.2952H14.3787H14.4946V52.1793V52.0633H14.3787H14.2627V52.1793ZM25.1627 52.1793V52.2952H25.2786H25.3946V52.1793V52.0633H25.2786H25.1627V52.1793ZM60.8336 52.2368L64.1523 52.3082L67.3272 52.2366L70.5019 52.1651L64.0083 52.1654L57.5147 52.1656L60.8336 52.2368ZM84.4696 52.2308L85.218 52.3238L86.093 52.2326L86.9678 52.1413L85.3444 52.1394L83.721 52.1375L84.4696 52.2308ZM13.567 52.4112V52.5272H13.6829H13.7989V52.4112V52.2952H13.6829H13.567V52.4112ZM100.071 52.4112V52.5272H100.187H100.303V52.4112V52.2952H100.187H100.071V52.4112ZM9.10263 52.6969L10.0883 52.7857L11.0739 52.6969L12.0595 52.6081H10.0883H8.11699L9.10263 52.6969ZM24.9308 52.6431V52.7591H25.0467H25.1627V52.6431V52.5272H25.0467H24.9308V52.6431ZM99.839 52.875V52.991H99.955H100.071V52.875V52.7591H99.955H99.839V52.875ZM99.6071 53.3389V53.4548H99.7231H99.839V53.3389V53.2229H99.7231H99.6071V53.3389ZM99.3752 53.8027V53.9186H99.4912H99.6071V53.8027V53.6867H99.4912H99.3752V53.8027ZM24.235 54.0346V54.1506H24.351H24.4669V54.0346V53.9186H24.351H24.235V54.0346ZM98.9114 54.4984V54.6144H99.0273H99.1433V54.4984V54.3825H99.0273H98.9114V54.4984ZM23.5393 54.9623V55.0782H23.6552H23.7712V54.9623V54.8463H23.6552H23.5393V54.9623ZM22.2417 56.2737L22.0761 56.5414L22.3438 56.3758L22.6116 56.2104V56.1081V56.0059H22.5094H22.4071L22.2417 56.2737ZM96.8241 56.5857V56.7016H96.9401H97.0561V56.5857V56.4697H96.9401H96.8241V56.5857ZM21.4521 56.8176V56.9335H21.568H21.684V56.8176V56.7016H21.568H21.4521V56.8176ZM96.1284 57.0495V57.1654H96.2444H96.3603V57.0495V56.9335H96.2444H96.1284V57.0495ZM20.7563 57.2814V57.3974H20.8723H20.9882V57.2814V57.1654H20.8723H20.7563V57.2814ZM20.2925 57.5133V57.6293H20.4084H20.5244V57.5133V57.3974H20.4084H20.2925V57.5133ZM95.4327 57.5133V57.6293H95.5486H95.6646V57.5133V57.3974H95.5486H95.4327V57.5133ZM19.8287 57.7452V57.8612H19.9446H20.0606V57.7452V57.6293H19.9446H19.8287V57.7452ZM94.9688 57.7452V57.8612H95.0848H95.2007V57.7452V57.6293H95.0848H94.9688V57.7452ZM19.3648 57.9771V58.0931H19.4808H19.5967V57.9771V57.8612H19.4808H19.3648V57.9771ZM93.8093 58.2091V58.325H93.9252H94.0412V58.2091V58.0931H93.9252H93.8093V58.2091ZM18.2053 58.441V58.5569H18.3212H18.4372V58.441V58.325H18.3212H18.2053V58.441ZM93.1135 58.441V58.5569H93.2295H93.3454V58.441V58.325H93.2295H93.1135V58.441ZM17.2776 58.6729V58.7888H17.3936H17.5095V58.6729V58.5569H17.3936H17.2776V58.6729ZM92.4178 58.6729V58.7888H92.5337H92.6497V58.6729V58.5569H92.5337H92.4178V58.6729ZM16.3499 58.9048V59.0208H16.4659H16.5819V58.9048V58.7888H16.4659H16.3499V58.9048ZM91.3354 58.9435L91.4901 59.098L91.6448 58.9435L91.7993 58.7888H91.4901H91.181L91.3354 58.9435ZM14.8038 59.1754L14.9585 59.3299L15.1131 59.1754L15.2676 59.0208H14.9585H14.6493L14.8038 59.1754ZM89.9439 59.1754L90.0986 59.3299L90.2533 59.1754L90.4078 59.0208H90.0986H89.7895L89.9439 59.1754Z" fill="#898989"/>
</g>
</svg>
