<svg width="177" height="63" viewBox="0 0 177 63" fill="none" xmlns="http://www.w3.org/2000/svg">
<path opacity="0.6" fill-rule="evenodd" clip-rule="evenodd" d="M12.0331 0.235606C7.41076 1.08776 3.33654 4.4721 1.33315 9.12353C0.708783 10.5731 0.00255335 13.6367 3.77426e-06 14.9061C-0.0025458 16.1658 1.28697 21.3337 2.78017 26.0481C3.41898 28.0649 4.14589 30.4451 4.39547 31.337C4.79632 32.7683 5.24759 33.2749 5.71105 32.8134C5.89575 32.6292 5.14306 29.8522 3.53286 24.7787C2.47139 21.4347 1.48754 17.7294 1.26034 16.2211C1.07961 15.0212 1.52521 11.35 1.96657 10.4022C4.36034 5.26248 7.17847 2.60363 11.4241 1.47787C13.604 0.899896 17.2827 0.979158 19.5547 1.65276C26.0212 3.57031 30.3167 10.4561 29.1946 17.1057C28.998 18.2701 28.7303 19.4893 28.5997 19.8148C28.4688 20.1403 27.9694 21.7394 27.4892 23.3684C27.009 24.9973 26.5003 26.711 26.3583 27.1764C25.9513 28.5114 24.4411 34.0776 24.0433 35.7092L23.6824 37.1901H14.8125H5.94249V39.3014V41.4127L14.3702 41.4875L22.798 41.5622L22.8864 42.4745L22.9748 43.3867L15.2377 43.4617L7.50056 43.5368L7.41728 45.5818L7.33399 47.6269L14.0745 47.6311C17.7819 47.6336 20.9569 47.7287 21.1303 47.8427C21.4303 48.0398 21.4909 49.1633 21.2164 49.4369C21.145 49.5078 18.3167 49.5943 14.9311 49.6293C8.37223 49.697 8.27478 49.7213 9.2932 51.0442C9.57818 51.4143 10.9371 53.5575 12.3133 55.8071C13.6895 58.0566 14.9671 60.0241 15.1521 60.1792C15.3745 60.3657 35.7515 60.4461 75.2339 60.4168C129.625 60.3761 134.987 60.3318 135.071 59.9231C135.154 59.5135 129.928 59.4741 75.6515 59.4741C42.9206 59.4741 16.1442 59.379 16.1484 59.2625C16.1527 59.146 16.9666 57.7816 17.9566 56.2302C18.9467 54.6788 19.7006 53.3144 19.6317 53.1979C19.3476 52.7169 18.6994 53.0461 18.1328 53.9589C17.4266 55.0968 17.1328 55.2026 14.866 55.1363L13.1663 55.0864L11.9634 53.2608C11.302 52.2566 10.7603 51.2764 10.7595 51.0823C10.7586 50.8118 12.1079 50.7297 16.5657 50.7297H22.3731V48.6141V46.4986H15.4147H8.45609L8.54504 45.5818L8.63371 44.6651L16.2116 44.59L23.7895 44.5147V42.404V40.2929H15.4326H7.07563V39.3056V38.3184H15.8122H24.549L24.9096 36.6964C25.1082 35.8042 25.434 34.5033 25.6337 33.8052C25.8334 33.107 26.4071 31.0761 26.9082 29.2919C27.7031 26.4619 28.5326 23.6507 29.447 20.6886C30.0351 18.7829 30.5881 15.9269 30.5835 14.8181C30.5787 13.6805 29.8385 10.4764 29.228 8.95231C28.6535 7.51824 26.9578 5.1567 25.5858 3.88002C23.9368 2.34581 20.5739 0.631921 18.4394 0.237861C16.7266 -0.0783455 13.7419 -0.0794725 12.0331 0.235606ZM32.7569 32.6286C31.9184 33.551 32.3569 34.6514 33.5629 34.6514C34.8073 34.6514 35.3512 32.9702 34.2898 32.4047C33.5311 32.0004 33.2966 32.0349 32.7569 32.6286ZM129.879 32.678C128.747 33.9228 130.645 35.4011 131.843 34.2082C132.426 33.6274 132.404 33.3569 131.721 32.6769C131.005 31.9638 130.528 31.9641 129.879 32.678ZM156.307 35.9912C156.229 38.632 156.2 38.7429 155.579 38.7739C154.765 38.8148 154.553 39.0238 154.765 39.5756C154.858 39.8151 155.253 40.0108 155.645 40.0108H156.357L156.433 46.9922C156.507 53.7603 156.526 53.9736 157.075 53.9736C157.623 53.9736 157.647 53.7386 157.784 47.0627L157.925 40.1519L159.145 40.0644C159.92 40.0089 160.425 39.8187 160.532 39.5423C160.747 38.9838 160.084 38.5536 159.293 38.7384C157.955 39.0512 157.784 38.7288 157.784 35.8905C157.784 33.2627 157.778 33.241 157.086 33.241C156.397 33.241 156.387 33.2782 156.307 35.9912ZM44.3277 38.7384C43.8603 38.944 43.1688 39.4416 42.7912 39.8436C41.8787 40.8153 41.2824 40.8133 41.5277 39.8396C41.7266 39.0504 41.2728 38.5407 40.6 38.7979C40.2954 38.9141 40.2201 40.4497 40.2201 46.5485V54.1538L40.8575 54.0638C41.4869 53.9747 41.4968 53.9053 41.6612 48.4731C41.7549 45.3742 41.9674 42.6646 42.1473 42.2674C42.9634 40.4669 44.1498 39.7288 46.2277 39.7288C47.6104 39.7288 47.9917 39.8472 48.7221 40.5045C49.8586 41.527 50.1314 43.2445 50.1334 49.3898C50.1351 53.9259 50.1577 54.1146 50.7017 54.1146C51.2507 54.1146 51.2682 53.9265 51.2682 48.0359C51.2682 41.69 51.1685 41.0799 49.8943 39.6348C48.8127 38.4084 46.0781 37.968 44.3277 38.7384ZM60.7583 38.7398C60.2909 38.9466 59.526 39.5172 59.0586 40.008L58.2087 40.9008L58.0671 39.8213C57.9563 38.9765 57.8022 38.7415 57.3589 38.7415C56.8062 38.7415 56.7923 38.9296 56.7923 46.3575V53.9736L57.4297 54.0638L58.0671 54.1538V49.1072C58.0671 43.2981 58.36 41.9665 59.9422 40.5834C60.7914 39.841 61.1365 39.7288 62.5713 39.7288C64.3223 39.7288 65.3509 40.2537 66.0685 41.5137C66.2997 41.9196 66.4665 44.1252 66.5623 48.05C66.7016 53.7375 66.73 53.9736 67.2739 53.9736C67.8138 53.9736 67.8447 53.7555 67.9308 49.3193C68.0719 42.0449 67.4283 39.7668 64.939 38.7311C63.7322 38.2292 61.9056 38.2329 60.7583 38.7398ZM77.4722 38.713C75.5855 39.307 74.59 39.9434 73.5733 41.2051C71.443 43.8496 71.0841 46.7575 72.5186 49.7509C73.9682 52.775 76.3416 54.2387 79.7385 54.2038C83.1013 54.1688 85.5495 52.6487 86.9798 49.7066C89.9438 43.6095 83.9461 36.6741 77.4722 38.713ZM93.6195 38.7167C92.0362 39.4173 91.3532 40.4464 91.3532 42.1306C91.3532 44.1114 92.209 45.025 95.1829 46.2187C97.9588 47.3329 98.577 47.9583 98.577 49.6522C98.577 53.276 93.6554 54.3984 91.9104 51.1723C91.5319 50.4725 91.1699 50.1656 90.7223 50.1656C89.8359 50.1656 89.8877 50.9551 90.8574 52.2165C92.969 54.9634 97.4761 54.9301 99.3552 52.1536C99.8356 51.4436 99.9934 50.8047 99.9934 49.5695C99.9934 47.1205 99.1186 46.245 95.2107 44.783C92.669 43.8321 91.9104 42.0567 93.3892 40.52C94.4277 39.4407 96.2894 39.4001 97.328 40.4339C98.573 41.6737 99.7277 41.0909 98.5359 39.8244C97.2299 38.4366 95.2569 37.992 93.6195 38.7167ZM107.756 38.9011C106.028 39.5626 104.498 40.8669 103.641 42.4085C102.753 44.0056 102.547 47.9309 103.27 49.4903C104.105 51.2913 105.244 52.5432 106.832 53.4038C108.101 54.0918 108.655 54.2162 110.465 54.2212C112.231 54.226 112.885 54.0904 114.249 53.4354C115.973 52.6081 116.247 52.2913 116.092 51.3006C116.002 50.7201 115.965 50.7272 114.866 51.5342C114.243 51.9917 113.032 52.5674 112.175 52.8137C110.812 53.2049 110.432 53.212 109.144 52.8707C106.661 52.2134 105.264 50.91 104.404 48.4511C103.778 46.6616 103.857 45.269 104.682 43.5323C105.915 40.938 107.847 39.7288 110.761 39.7288C112.497 39.7288 114.142 40.3177 115.117 41.2889C115.71 41.8787 116.099 41.6136 115.93 40.7352C115.765 39.8729 114.991 39.3491 113.022 38.7669C111.043 38.1816 109.533 38.2202 107.756 38.9011ZM123.442 38.7581C123.018 38.9875 122.535 39.4267 122.37 39.7341C121.957 40.5019 121.523 40.4353 121.523 39.6044C121.523 38.8168 121.229 38.5409 120.721 38.8535C120.457 39.0159 120.37 40.9061 120.368 46.5214C120.366 53.8077 120.379 53.9756 120.945 54.0638C121.51 54.1519 121.524 54.0275 121.545 48.5634C121.567 42.7086 121.722 41.7574 122.867 40.4531C123.368 39.8816 123.765 39.7288 124.744 39.7288C126.136 39.7288 127.066 39.0526 126.321 38.5832C125.714 38.201 124.316 38.2859 123.442 38.7581ZM142.248 38.8117C141.572 39.0439 140.589 39.6627 140.062 40.1866C139.536 40.7104 139.045 41.1391 138.971 41.1391C138.897 41.1391 138.797 40.5995 138.749 39.9403C138.678 38.9584 138.559 38.7415 138.095 38.7415C137.538 38.7415 137.529 38.9296 137.529 50.8707C137.529 62.8119 137.538 63 138.095 63C138.641 63 138.665 62.7865 138.739 57.288C138.781 54.1465 138.886 51.5759 138.973 51.5759C139.06 51.5759 139.517 51.9607 139.989 52.4312C141.255 53.6912 142.633 54.193 144.898 54.2181C149.669 54.2706 152.704 50.7726 152.335 45.6447C151.952 40.3129 147.217 37.1052 142.248 38.8117ZM166.581 38.7908C162.885 40.1338 160.851 44.8527 162.217 48.9165C163.012 51.28 164.003 52.4664 166.141 53.6134C168.5 54.8793 172.974 54.1456 174.474 52.247C175.26 51.2513 175.603 51.4205 175.543 52.7748C175.497 53.8032 175.57 53.9736 176.056 53.9736C176.606 53.9736 176.624 53.7606 176.698 46.428L176.773 38.8825H176.023C175.325 38.8825 175.284 38.9505 175.433 39.8647C175.633 41.09 175.207 41.3961 174.517 40.5231C173.092 38.7192 169.148 37.8583 166.581 38.7908ZM33.0532 38.7787C32.9442 38.8876 32.8546 42.3915 32.8546 46.5651V54.1538L33.492 54.0638L34.1294 53.9736V46.3615C34.1294 39.7127 34.0739 38.7387 33.6906 38.665C33.4493 38.6188 33.1626 38.6698 33.0532 38.7787ZM130.653 38.843C130.414 38.99 130.297 41.164 130.241 46.511L130.163 53.9736L130.801 54.0638L131.438 54.1538V46.535C131.438 42.3444 131.336 38.8532 131.212 38.7767C131.088 38.7003 130.836 38.7299 130.653 38.843ZM82.5756 40.3225C84.2254 41.1905 84.9724 41.9535 85.7223 43.5368C87.8214 47.9693 84.6229 52.9917 79.7056 52.9846C77.6951 52.9818 76.4115 52.4402 75.0124 51.0042C73.1971 49.1411 72.6368 46.8342 73.3651 44.2236C73.7215 42.9453 75.3838 41.0015 76.722 40.2974C78.1962 39.5217 81.077 39.5344 82.5756 40.3225ZM147.564 40.2822C148.692 40.8551 150.048 42.3879 150.643 43.7616C151.168 44.9728 151.068 47.9521 150.455 49.376C149.755 51.0002 148.216 52.3059 146.37 52.8405C145.015 53.2323 144.728 53.2309 143.352 52.8238C141.36 52.2349 140.434 51.5206 139.539 49.8826C138.147 47.3375 138.776 43.0939 140.82 41.2283C142.575 39.6266 145.473 39.2199 147.564 40.2822ZM172.242 40.3634C175.459 41.9789 176.51 46.3505 174.553 49.9749C173.651 51.6459 172.619 52.4066 170.63 52.8667C167.992 53.4774 165.787 52.5136 164.259 50.0821C163.423 48.7504 163.336 48.4046 163.324 46.3575C163.308 43.3436 163.957 42.0973 166.393 40.4664C167.869 39.478 170.39 39.4337 172.242 40.3634ZM141.2 59.775C141.097 59.9403 141.084 60.1465 141.171 60.2331C141.258 60.3197 149.334 60.3894 159.117 60.388C175.265 60.3854 176.914 60.3431 176.997 59.9296C177.081 59.5141 175.52 59.4741 159.238 59.4741C146.9 59.4741 141.329 59.5669 141.2 59.775Z" fill="white"/>
</svg>
