<svg width="27" height="27" viewBox="0 0 27 27" fill="none" xmlns="http://www.w3.org/2000/svg">
<path fill-rule="evenodd" clip-rule="evenodd" d="M17.7339 0.0961381C17.1514 0.325368 16.8169 0.787736 16.7029 1.52121C16.669 1.73903 16.6149 1.94487 16.5826 1.97866C16.5502 2.01241 16.3745 2.10212 16.1921 2.17806L15.8603 2.31609L15.5267 2.07794C15.0452 1.73428 14.7843 1.62935 14.4083 1.62798C13.8453 1.62592 13.6379 1.73491 12.9784 2.37914C12.2881 3.05337 12.1504 3.29686 12.1496 3.84466C12.149 4.24176 12.2591 4.5294 12.5877 4.98833C12.7055 5.15293 12.8019 5.31287 12.8019 5.34371C12.8019 5.37455 12.7399 5.55795 12.6641 5.75127L12.5263 6.10269L12.123 6.16764C11.3798 6.28735 10.9903 6.52324 10.7151 7.02019C10.5628 7.29526 10.5578 7.32736 10.5405 8.13402C10.5196 9.10708 10.5753 9.34935 10.9062 9.72533C11.1742 10.0299 11.5565 10.2154 12.0842 10.2968L12.5016 10.3613L12.6518 10.6926C12.7344 10.8748 12.8019 11.0618 12.8019 11.108C12.8019 11.1543 12.6976 11.339 12.57 11.5185C12.2496 11.969 12.1584 12.2078 12.1526 12.6104C12.145 13.1329 12.3201 13.4638 12.9216 14.0639C13.4375 14.5786 13.6896 14.7405 14.1185 14.8325C14.5307 14.9209 14.8896 14.8224 15.4 14.4806C15.635 14.3233 15.857 14.1946 15.8934 14.1946C15.9298 14.1946 16.1115 14.2628 16.2971 14.3461L16.6347 14.4975L16.6989 14.9138C16.7799 15.4398 16.9657 15.8229 17.2687 16.0897C17.6304 16.4082 17.8622 16.4652 18.7947 16.4652C19.5829 16.4652 19.6002 16.4628 19.9201 16.3028C20.4562 16.0349 20.7021 15.6476 20.8264 14.8756L20.891 14.4741L21.2718 14.3152L21.6527 14.1562L21.9389 14.3654C22.4152 14.7135 22.7559 14.8493 23.1491 14.8479C23.6972 14.8459 23.9408 14.7079 24.6142 14.0181C25.2583 13.3584 25.3672 13.1509 25.3652 12.5878C25.3638 12.2148 25.2625 11.9602 24.9205 11.4709L24.686 11.1353L24.8196 10.8036C24.8931 10.6211 24.9748 10.4493 25.0011 10.4219C25.0275 10.3945 25.2659 10.3282 25.531 10.2747C25.7961 10.2211 26.0839 10.1406 26.1704 10.0958C26.4566 9.9478 26.7717 9.58085 26.8947 9.25235C27 8.97121 27.0098 8.86222 26.994 8.14833C26.9783 7.44031 26.9631 7.32905 26.8502 7.09972C26.5896 6.57018 26.2213 6.32479 25.4754 6.18375L24.9995 6.09377L24.8574 5.75924C24.7792 5.57527 24.7154 5.39594 24.7156 5.36077C24.7158 5.3256 24.8358 5.1186 24.9822 4.90078C25.1286 4.68295 25.2775 4.41343 25.3131 4.30191C25.3994 4.03096 25.3589 3.44688 25.2355 3.18459C25.1067 2.9109 24.0826 1.88647 23.809 1.75767C23.5468 1.63427 22.9628 1.59376 22.692 1.6801C22.5805 1.71569 22.311 1.8646 22.0932 2.01109C21.8755 2.15752 21.6685 2.27749 21.6334 2.2777C21.5982 2.27792 21.4189 2.21413 21.235 2.13592L20.9006 1.99371L20.8106 1.51772C20.6696 0.771577 20.4243 0.403204 19.8949 0.142554C19.6625 0.0280715 19.5617 0.0150285 18.8202 0.00346398C18.1076 -0.00767804 17.9673 0.00425607 17.7339 0.0961381ZM19.3374 1.40783C19.375 1.43175 19.4525 1.71057 19.5095 2.02751C19.6855 3.00621 19.7242 3.06403 20.3408 3.26892C20.5352 3.33356 20.8831 3.47766 21.1138 3.58914C21.7704 3.90639 21.8193 3.89404 22.8534 3.14826C22.9667 3.06657 23.0979 2.99977 23.1451 2.99977C23.255 2.99977 23.9937 3.7409 23.9937 3.85116C23.9937 3.89699 23.927 4.02711 23.8453 4.14038C23.0997 5.17484 23.0874 5.22374 23.4045 5.88048C23.516 6.1113 23.66 6.45924 23.7247 6.65372C23.93 7.27213 23.9988 7.31913 24.9392 7.4833C25.2705 7.54112 25.5611 7.61938 25.5851 7.65719C25.6091 7.69494 25.629 7.96864 25.6295 8.2653C25.6304 8.9034 25.6623 8.86987 24.9404 8.99101C24.3255 9.09419 24.0251 9.20128 23.9268 9.35241C23.8852 9.41625 23.7732 9.68234 23.6777 9.94373C23.5823 10.2051 23.4363 10.555 23.3531 10.7211C23.1174 11.1921 23.1392 11.3026 23.6019 11.9827C23.8956 12.4145 23.9942 12.6014 23.9729 12.686C23.9571 12.7495 23.7793 12.9605 23.5779 13.155C23.3019 13.4215 23.1877 13.4998 23.1144 13.4729C23.0609 13.4533 22.8163 13.2955 22.5709 13.1223C22.1107 12.7974 21.8511 12.6632 21.683 12.6632C21.6297 12.6632 21.3974 12.7545 21.1666 12.866C20.9358 12.9775 20.6164 13.1111 20.4567 13.1629C20.0238 13.3034 19.7831 13.4535 19.6988 13.6356C19.6573 13.7252 19.5836 14.0362 19.535 14.3266C19.3979 15.1459 19.4512 15.0923 18.775 15.0923C18.3781 15.0923 18.1832 15.0718 18.1467 15.0263C18.1175 14.99 18.0544 14.7227 18.0063 14.4322C17.9583 14.1418 17.8945 13.8277 17.8645 13.7343C17.7924 13.5093 17.5664 13.3266 17.2249 13.2172C17.0715 13.1681 16.7136 13.0209 16.4294 12.8901C15.7877 12.5946 15.7153 12.6032 15.056 13.0534C14.2854 13.5794 14.3868 13.5701 13.9563 13.1546C13.7514 12.957 13.5625 12.7555 13.5363 12.707C13.5003 12.6399 13.5837 12.4774 13.8824 12.0322C14.0988 11.7097 14.2912 11.3642 14.3099 11.2644C14.3375 11.1173 14.2989 10.9851 14.1061 10.5662C13.9753 10.2819 13.8282 9.92388 13.7791 9.77048C13.6697 9.42882 13.4871 9.20276 13.2621 9.13063C13.1687 9.10069 12.8547 9.03685 12.5644 8.98879C12.274 8.94074 12.0068 8.87758 11.9705 8.84843C11.925 8.81189 11.9045 8.61693 11.9045 8.21994C11.9045 7.54355 11.8509 7.59683 12.67 7.45969C12.9603 7.41106 13.2712 7.33734 13.3608 7.29584C13.5428 7.21156 13.6929 6.97082 13.8333 6.53776C13.8851 6.37802 14.0187 6.05849 14.1302 5.82768C14.2417 5.59686 14.3329 5.36441 14.3329 5.31113C14.3329 5.14295 14.1988 4.88335 13.8739 4.42299C13.7008 4.1775 13.543 3.9329 13.5234 3.87936C13.4966 3.80601 13.5749 3.69184 13.8413 3.41577C14.2493 2.99301 14.3812 2.93756 14.5978 3.09772C14.6808 3.15909 14.9411 3.34037 15.1763 3.50058C15.6856 3.84741 15.829 3.86425 16.2903 3.63138C16.4651 3.54309 16.7792 3.40991 16.9883 3.33535C17.8171 3.0399 17.8321 3.02253 17.9778 2.19353C18.1336 1.30745 18.0838 1.36263 18.7267 1.36358C19.0249 1.36406 19.2997 1.38397 19.3374 1.40783ZM18.1075 5.03158C17.3705 5.19343 16.8463 5.495 16.3386 6.0493C15.169 7.32604 15.2197 9.3079 16.4535 10.5421C17.4503 11.5392 18.9761 11.7863 20.2377 11.155C20.6825 10.9324 21.2251 10.4434 21.5111 10.0075C21.9461 9.34423 22.1306 8.36859 21.9675 7.59387C21.5944 5.82198 19.8327 4.65259 18.1075 5.03158ZM19.1975 6.39835C20.3778 6.67627 20.9863 7.95485 20.4602 9.05195C20.0147 9.98128 18.9033 10.3875 17.9725 9.96121C16.5554 9.31228 16.5015 7.26468 17.8829 6.55862C18.3359 6.32712 18.7041 6.28223 19.1975 6.39835ZM8.22513 7.48594C7.97379 7.63923 7.90912 7.77642 7.80116 8.38522C7.69009 9.01134 7.75724 8.93852 6.99778 9.25636L6.55195 9.44292L6.25337 9.23344C5.36114 8.60743 5.11645 8.51064 4.53379 8.55357C4.0017 8.5927 3.68722 8.78063 2.98172 9.48084C2.28307 10.1743 2.09577 10.4833 2.04683 11.0231C2.00185 11.5189 2.10638 11.8225 2.54608 12.4733L2.93843 13.054L2.75355 13.4799C2.65182 13.7141 2.55231 13.9707 2.53241 14.0501C2.51245 14.1296 2.49102 14.1946 2.48469 14.1946C2.28941 14.1946 1.19135 14.4456 0.995226 14.5351C0.642473 14.696 0.314901 15.0278 0.139792 15.4013C0.00322029 15.6927 0 15.7237 0 16.7557C0 17.805 0.000950241 17.8137 0.147499 18.1123C0.331478 18.487 0.761676 18.8888 1.11216 19.0132C1.25538 19.064 1.61706 19.1502 1.91586 19.2046C2.21471 19.259 2.46584 19.3124 2.47397 19.3234C2.4821 19.3342 2.5662 19.5333 2.6608 19.7656C2.75545 19.998 2.85776 20.2478 2.88822 20.3208C2.93774 20.4393 2.9067 20.5056 2.59745 20.9426C2.14861 21.577 2.05802 21.8156 2.06198 22.3531C2.06663 22.9834 2.16836 23.165 2.97095 23.9764C3.79756 24.8121 4.01369 24.9365 4.64338 24.9389C5.18323 24.941 5.42264 24.8501 6.05424 24.4029L6.54187 24.0577L6.80794 24.173C6.95433 24.2365 7.20472 24.3385 7.36442 24.3996C7.52411 24.4607 7.66348 24.5171 7.67414 24.5249C7.68476 24.5328 7.73639 24.7784 7.78891 25.0706C7.84139 25.3629 7.92374 25.7208 7.97194 25.866C8.08951 26.22 8.4998 26.663 8.88534 26.8525C9.18377 26.9991 9.19253 27 10.2416 27C11.2733 27 11.3042 26.9968 11.5956 26.8602C11.969 26.685 12.3006 26.3574 12.4615 26.0045C12.5297 25.855 12.6342 25.4614 12.6936 25.1299C12.7531 24.7984 12.8077 24.5245 12.815 24.5212C12.8224 24.518 13.0812 24.4134 13.3902 24.2889L13.9521 24.0624L14.5313 24.4567C15.1727 24.8932 15.5007 25.0029 16.0077 24.9506C16.5119 24.8985 16.8165 24.7106 17.4985 24.0308C18.2417 23.29 18.4017 23.0203 18.4394 22.4457C18.4747 21.9081 18.3859 21.6514 17.9374 20.9932L17.5506 20.4255L17.6401 20.254C17.6893 20.1596 17.7935 19.9171 17.8715 19.7149C17.9495 19.5128 18.0465 19.33 18.0868 19.3087C18.1272 19.2874 18.3975 19.2297 18.6874 19.1806C19.1511 19.102 19.2349 19.0709 19.3838 18.922C19.6777 18.628 19.683 18.2406 19.3968 17.9662C19.2491 17.8247 19.2038 17.8118 18.8563 17.8121C18.6477 17.8123 18.1851 17.8684 17.8284 17.9368C17.016 18.0928 16.9535 18.1452 16.7117 18.8745C16.6177 19.1583 16.4359 19.5992 16.3078 19.8543C15.9607 20.5456 15.9641 20.5621 16.6545 21.5497C17.2339 22.3785 17.2352 22.3632 16.5314 23.0559C16.0916 23.4889 15.9549 23.594 15.8319 23.5938C15.7278 23.5936 15.5108 23.4746 15.1512 23.2203C14.4156 22.7002 14.1998 22.5802 14.0007 22.5802C13.9024 22.5802 13.589 22.6937 13.2752 22.8429C12.9713 22.9875 12.5327 23.1688 12.3004 23.246C11.6188 23.4724 11.5877 23.5183 11.4018 24.5697C11.3248 25.0047 11.2396 25.4022 11.2124 25.453C11.1221 25.6219 10.9672 25.6535 10.2286 25.6535C9.57316 25.6535 9.48426 25.6425 9.38459 25.5496C9.2458 25.4203 9.24517 25.4181 9.08457 24.5052C9.01178 24.0916 8.92974 23.7111 8.90229 23.6598C8.80779 23.4831 8.65649 23.3947 8.16431 23.2285C7.89286 23.1368 7.45675 22.9543 7.19517 22.8229C6.69476 22.5715 6.42668 22.524 6.19778 22.6461C6.12804 22.6832 5.78833 22.9118 5.4428 23.1538C4.99418 23.4682 4.76929 23.594 4.65616 23.594C4.5255 23.594 4.40191 23.4982 3.95139 23.0475C3.50087 22.5969 3.40505 22.4733 3.40505 22.3426C3.40505 22.2294 3.53085 22.0045 3.84512 21.5557C4.08712 21.2101 4.3156 20.8703 4.35277 20.8005C4.47482 20.5716 4.42731 20.3034 4.17597 19.8029C4.04462 19.5412 3.86223 19.105 3.77069 18.8335C3.51898 18.087 3.50842 18.0797 2.40201 17.892C1.59145 17.7544 1.5781 17.7505 1.44997 17.6129C1.35711 17.5132 1.34618 17.4243 1.34618 16.7687C1.34618 16.0298 1.3777 15.8749 1.54658 15.7845C1.59737 15.7573 1.99267 15.6723 2.42498 15.5954C2.85724 15.5187 3.27798 15.4212 3.35992 15.3788C3.53276 15.2894 3.60962 15.1528 3.77375 14.6434C3.83926 14.4401 4.01115 14.0278 4.15575 13.7273C4.53917 12.9301 4.53854 12.9266 3.83219 11.9264C3.52758 11.4951 3.40505 11.2762 3.40505 11.1635C3.40505 11.0333 3.50113 10.9092 3.94891 10.4613C4.65473 9.75537 4.60833 9.75659 5.55541 10.419C6.41047 11.0171 6.46538 11.0278 7.08842 10.7174C7.46034 10.5322 7.7858 10.4013 8.48555 10.1554C8.85335 10.0262 8.92979 9.88253 9.0812 9.03605C9.27748 7.93885 9.25419 7.74178 8.90002 7.50305C8.6813 7.35561 8.44849 7.34975 8.22513 7.48594ZM9.80697 12.1892C7.8842 12.3937 6.32432 13.7218 5.80791 15.594C5.67155 16.0883 5.64331 17.094 5.75079 17.6305C5.93229 18.537 6.34602 19.3007 7.02164 19.9765C7.9182 20.8733 8.9942 21.3234 10.2416 21.3234C12.4103 21.3234 14.2943 19.8022 14.7283 17.7008C14.8471 17.1255 14.8503 16.5763 14.7357 16.4029C14.4478 15.9667 13.7959 15.9705 13.5688 16.4097C13.529 16.4867 13.4722 16.7624 13.4425 17.0223C13.3341 17.9727 12.9686 18.6613 12.2623 19.2455C11.5576 19.8282 10.497 20.0834 9.57105 19.8929C8.6765 19.7088 7.77798 18.9972 7.37666 18.155C7.12448 17.6258 7.0474 17.2935 7.04846 16.7399C7.05031 15.7783 7.46857 14.8866 8.2037 14.2769C8.71804 13.8503 9.23814 13.6379 9.97496 13.5539C10.2348 13.5242 10.5104 13.4674 10.5874 13.4275C11.0124 13.2077 11.031 12.5473 10.6199 12.2778C10.4505 12.1667 10.2367 12.1435 9.80697 12.1892Z" fill="#5D5656"/>
</svg>
