<svg width="44" height="50" viewBox="0 0 44 50" fill="none" xmlns="http://www.w3.org/2000/svg">
<g opacity="0.7">
<path d="M44 0L39.9915 44.9948L21.9731 50L4.00427 45.0018L0 0H44Z" fill="#264DE4"/>
<path d="M36.5598 42.1298L39.9853 3.67969H22V46.1743L36.5598 42.1298Z" fill="#2965F1"/>
<path d="M9.17969 20.3701L9.67338 25.8893H22V20.3701H9.17969Z" fill="#EBEBEB"/>
<path d="M22 9.19873H21.981H8.18774L8.68847 14.7181H22V9.19873Z" fill="#EBEBEB"/>
<path d="M22 40.4465V34.7042L21.9759 34.7106L15.8412 33.0508L15.4491 28.6489H12.4681H9.91956L10.6913 37.315L21.9747 40.4536L22 40.4465Z" fill="#EBEBEB"/>
<path d="M28.7639 25.8891L28.1245 33.0472L21.981 34.7087V40.4509L33.2734 37.3149L33.3562 36.3825L34.6506 21.852L34.785 20.3699L35.7794 9.19873H21.981V14.7181H29.7428L29.2415 20.3699H21.981V25.8891H28.7639Z" fill="white"/>
</g>
</svg>
