<svg width="60" height="44" viewBox="0 0 60 44" fill="none" xmlns="http://www.w3.org/2000/svg">
<g opacity="0.7">
<path d="M59.4083 16.2529C59.2455 16.1236 57.7264 14.9766 54.5228 14.9766C53.6769 14.9803 52.8327 15.0528 51.9986 15.1936C51.3786 10.9437 47.8649 8.87164 47.7074 8.77869L46.8471 8.28259L46.2813 9.09903C45.5728 10.1958 45.0555 11.4048 44.7519 12.6746C44.1783 15.1006 44.5271 17.3792 45.7594 19.3272C44.2713 20.1565 41.8841 20.3607 41.4011 20.3787H1.87816C0.845831 20.3801 0.0081465 21.2144 0.00252051 22.2466C-0.043579 25.7091 0.543035 29.1508 1.73348 32.4025C3.09497 35.973 5.12049 38.603 7.75572 40.2125C10.7087 42.021 15.5063 43.0544 20.9446 43.0544C23.4014 43.0621 25.8536 42.8398 28.269 42.3904C31.6266 41.7739 34.8575 40.6004 37.8281 38.9181C40.2757 37.5007 42.4786 35.6975 44.3515 33.578C47.4828 30.0333 49.3482 26.0857 50.7354 22.5773H51.2883C54.7166 22.5773 56.8248 21.2054 57.9874 20.0558C58.76 19.3225 59.3632 18.4294 59.7546 17.4387L60 16.7205L59.4083 16.2529Z" fill="#2496ED"/>
<path d="M5.54162 19.2215H10.8379C11.0933 19.2215 11.3003 19.0144 11.3003 18.759V14.0414C11.3017 13.786 11.0958 13.5778 10.8405 13.5764C10.8396 13.5764 10.8387 13.5764 10.8379 13.5764H5.54162C5.28618 13.5764 5.07919 13.7835 5.07919 14.0388V14.0414V18.759C5.07919 19.0144 5.28618 19.2215 5.54162 19.2215Z" fill="#2496ED"/>
<path d="M12.84 19.2215H18.1363C18.3917 19.2215 18.5987 19.0144 18.5987 18.759V14.0414C18.6001 13.786 18.3942 13.5778 18.1388 13.5764C18.138 13.5764 18.137 13.5764 18.1362 13.5764H12.84C12.5831 13.5764 12.3749 13.7846 12.3749 14.0414V18.759C12.3765 19.0148 12.5842 19.2215 12.84 19.2215Z" fill="#2496ED"/>
<path d="M20.2496 19.2215H25.5459C25.8013 19.2215 26.0083 19.0144 26.0083 18.759V14.0414C26.0097 13.786 25.8038 13.5778 25.5484 13.5764C25.5475 13.5764 25.5466 13.5764 25.5458 13.5764H20.2495C19.9941 13.5764 19.7871 13.7835 19.7871 14.0388V14.0414V18.759C19.7872 19.0144 19.9943 19.2215 20.2496 19.2215Z" fill="#2496ED"/>
<path d="M27.5714 19.2215H32.8676C33.1235 19.2215 33.3312 19.0149 33.3327 18.759V14.0414C33.3327 13.7846 33.1245 13.5764 32.8676 13.5764H27.5714C27.316 13.5764 27.109 13.7835 27.109 14.0388V14.0414V18.759C27.109 19.0144 27.316 19.2215 27.5714 19.2215Z" fill="#2496ED"/>
<path d="M12.8401 12.4345H18.1363C18.3921 12.4331 18.5987 12.2253 18.5987 11.9695V7.25197C18.5987 6.99654 18.3916 6.78955 18.1363 6.78955H12.8401C12.5843 6.78955 12.3765 6.99612 12.375 7.25197V11.9695C12.3765 12.2258 12.5838 12.4331 12.8401 12.4345Z" fill="#2496ED"/>
<path d="M20.2496 12.4345H25.5459C25.8016 12.4331 26.0083 12.2253 26.0083 11.9695V7.25197C26.0083 6.99654 25.8012 6.78955 25.5459 6.78955H20.2496C19.9942 6.78955 19.7872 6.99662 19.7872 7.25197V11.9695C19.7872 12.2253 19.9939 12.4331 20.2496 12.4345Z" fill="#2496ED"/>
<path d="M27.5714 12.4345H32.8676C33.1239 12.4331 33.3312 12.2258 33.3327 11.9695V7.25197C33.3312 6.99612 33.1235 6.78955 32.8676 6.78955H27.5714C27.316 6.78955 27.109 6.99662 27.109 7.25197V11.9695C27.109 12.2253 27.3156 12.4331 27.5714 12.4345Z" fill="#2496ED"/>
<path d="M27.5714 5.64505H32.8676C33.1235 5.64505 33.3312 5.4384 33.3327 5.18263V0.462423C33.3312 0.206566 33.1235 0 32.8676 0H27.5714C27.316 0 27.109 0.206986 27.109 0.462423V5.18254C27.109 5.43798 27.316 5.64505 27.5714 5.64505Z" fill="#2496ED"/>
<path d="M34.9578 19.2215H40.254C40.5099 19.2215 40.7176 19.0149 40.719 18.759V14.0414C40.719 13.7846 40.5109 13.5764 40.254 13.5764H34.9578C34.7024 13.5764 34.4954 13.7835 34.4954 14.0388V14.0414V18.759C34.4954 19.0144 34.7024 19.2215 34.9578 19.2215Z" fill="#2496ED"/>
</g>
</svg>
