<svg width="52" height="50" viewBox="0 0 52 50" fill="none" xmlns="http://www.w3.org/2000/svg">
<g opacity="0.7">
<path d="M25.6329 0C11.478 0 0 11.476 0 25.6329C0 36.9583 7.34458 46.5665 17.5294 49.956C18.8104 50.1932 19.2808 49.3999 19.2808 48.7228C19.2808 48.1117 19.2569 46.0923 19.246 43.9505C12.1147 45.5011 10.61 40.9261 10.61 40.9261C9.44398 37.9633 7.76394 37.1756 7.76394 37.1756C5.43838 35.5846 7.93924 35.6172 7.93924 35.6172C10.5133 35.7981 11.8687 38.2588 11.8687 38.2588C14.1548 42.1776 17.8651 41.0445 19.3278 40.3898C19.5578 38.7328 20.2222 37.6022 20.9552 36.9621C15.2619 36.3138 9.27672 34.1159 9.27672 24.2942C9.27672 21.4958 10.2781 19.209 11.9179 17.414C11.6517 16.7683 10.7744 14.1612 12.1662 10.6305C12.1662 10.6305 14.3187 9.94154 19.2171 13.258C21.2616 12.6899 23.4545 12.4052 25.6329 12.3956C27.8113 12.4052 30.0058 12.6899 32.0543 13.258C36.9469 9.94154 39.0963 10.6305 39.0963 10.6305C40.4915 14.1612 39.6138 16.7683 39.3476 17.414C40.9911 19.209 41.9856 21.4956 41.9856 24.2942C41.9856 34.1392 35.9891 36.3072 30.2814 36.9416C31.2007 37.7371 32.0199 39.2971 32.0199 41.6884C32.0199 45.1181 31.9902 47.8785 31.9902 48.7228C31.9902 49.4049 32.4515 50.2042 33.751 49.9526C43.9302 46.5593 51.2655 36.9545 51.2655 25.6329C51.2655 11.476 39.7891 0 25.6329 0Z" fill="#BBBBBB"/>
<path d="M9.60036 36.5146C9.54407 36.6419 9.34344 36.6801 9.1611 36.5928C8.97514 36.5092 8.87061 36.3355 8.93092 36.2076C8.9862 36.0766 9.18683 36.04 9.37239 36.128C9.55875 36.2115 9.66489 36.3868 9.60036 36.5146V36.5146ZM10.8613 37.6396C10.739 37.753 10.5 37.7003 10.3378 37.5212C10.1701 37.3425 10.1387 37.1037 10.2628 36.9885C10.3888 36.8753 10.6206 36.9281 10.7887 37.1071C10.9563 37.2878 10.9889 37.5252 10.861 37.6398L10.8613 37.6396ZM11.7263 39.079C11.5691 39.1882 11.3122 39.0858 11.1536 38.8579C10.9965 38.6301 10.9965 38.3567 11.157 38.2471C11.3162 38.1376 11.5691 38.2361 11.7299 38.4622C11.8867 38.694 11.8867 38.9674 11.7261 39.0792L11.7263 39.079ZM13.189 40.7462C13.0485 40.901 12.7494 40.8596 12.5302 40.6481C12.3063 40.4414 12.2438 40.1481 12.3847 39.9931C12.5268 39.8379 12.8278 39.8815 13.0485 40.0912C13.2711 40.2975 13.339 40.593 13.1892 40.7462H13.189ZM15.0796 41.3091C15.0178 41.5097 14.7296 41.601 14.4393 41.5157C14.1494 41.4279 13.9596 41.1927 14.0181 40.9898C14.0784 40.7878 14.3679 40.6927 14.6604 40.784C14.9499 40.8714 15.1401 41.1048 15.0798 41.3091H15.0796ZM17.2314 41.5477C17.2387 41.7592 16.9924 41.9345 16.6876 41.9383C16.3811 41.945 16.1332 41.7739 16.13 41.566C16.13 41.3525 16.3706 41.1788 16.677 41.1738C16.9817 41.1678 17.2314 41.3376 17.2314 41.5477V41.5477ZM19.3451 41.4667C19.3817 41.673 19.1698 41.8848 18.8672 41.9411C18.5697 41.9954 18.2943 41.8682 18.2563 41.6637C18.2193 41.4522 18.4352 41.2405 18.7322 41.1857C19.0353 41.133 19.3065 41.257 19.3451 41.4667" fill="#BBBBBB"/>
</g>
</svg>
