<svg width="54" height="50" viewBox="0 0 54 50" fill="none" xmlns="http://www.w3.org/2000/svg">
<g opacity="0.7">
<path d="M27 49.7435L36.943 19.1423H17.0569L26.9998 49.7435H27Z" fill="#E24329"/>
<path d="M27.0001 49.7433L17.0569 19.1421H3.12228L27.0001 49.7433Z" fill="#FC6D26"/>
<path d="M3.12225 19.1421L0.100772 28.4417C-0.0335725 28.8551 -0.033591 29.3005 0.100719 29.7139C0.235028 30.1273 0.496771 30.4876 0.848436 30.7432L27 49.7434L3.12204 19.1423L3.12225 19.1421Z" fill="#FCA326"/>
<path d="M3.12228 19.1422H17.0569L11.0686 0.711227C10.7604 -0.237181 9.41876 -0.23697 9.11078 0.711227L3.12228 19.1422Z" fill="#E24329"/>
<path d="M27.0001 49.7433L36.9431 19.1421H50.8779L26.9999 49.7433H27.0001Z" fill="#FC6D26"/>
<path d="M50.8778 19.1421L53.8993 28.4417C54.0336 28.8551 54.0336 29.3005 53.8992 29.7139C53.7649 30.1274 53.5031 30.4877 53.1514 30.7432L27.0001 49.7434L50.8778 19.1423V19.1421Z" fill="#FCA326"/>
<path d="M50.8778 19.1422H36.943L42.9315 0.711227C43.2397 -0.237181 44.5813 -0.23697 44.8893 0.711227L50.8778 19.1422Z" fill="#E24329"/>
</g>
</svg>
