<svg width="53" height="50" viewBox="0 0 53 50" fill="none" xmlns="http://www.w3.org/2000/svg">
<g opacity="0.7">
<path d="M3.05601 34.4477C3.10601 34.5608 3.16253 34.6651 3.2234 34.7695C3.25166 34.8304 3.29079 34.8934 3.32557 34.9499C3.38209 35.063 3.44296 35.1717 3.50166 35.2804L3.84296 35.8543C3.906 35.9608 3.96687 36.0651 4.03861 36.1695C4.15818 36.3738 4.29948 36.5738 4.42339 36.7782C4.47991 36.863 4.53209 36.9477 4.59513 37.0325C4.83426 37.4043 5.05165 37.7129 5.28426 38.0129C5.44948 38.2369 5.61469 38.4564 5.79295 38.676C5.85165 38.7586 5.91687 38.8412 5.97774 38.9238L6.45817 39.5064C6.51686 39.5738 6.57556 39.6521 6.6386 39.7216C6.85164 39.9782 7.07773 40.226 7.30382 40.4782C7.30382 40.4825 7.31034 40.4869 7.31469 40.4934C7.59512 40.8455 7.89729 41.1586 8.22773 41.4368L8.23642 41.4455C8.41034 41.6238 8.58425 41.7999 8.76903 41.9738L8.9886 42.1847C9.2299 42.4108 9.4712 42.6347 9.72555 42.8521C9.7299 42.8521 9.73207 42.8564 9.73642 42.8586L9.86033 42.9673C10.0821 43.1607 10.306 43.3521 10.5342 43.5303L10.806 43.7586C10.9908 43.9064 11.1821 44.0455 11.3712 44.1912L11.6668 44.4173C11.869 44.5694 12.0842 44.7173 12.2908 44.8651C12.3668 44.9194 12.4429 44.9738 12.5212 45.0238L12.5842 45.0738L13.1951 45.4738L13.456 45.6477C13.7755 45.852 14.0929 46.0433 14.4103 46.2346C14.5016 46.2803 14.5929 46.3303 14.6777 46.3825C14.9125 46.5173 15.156 46.6542 15.3929 46.7781C15.5234 46.852 15.6581 46.9151 15.7929 46.9825C15.956 47.0738 16.1255 47.1629 16.2994 47.2542C16.3473 47.2694 16.3864 47.2846 16.4255 47.3064L16.4342 47.2977C16.506 47.3303 16.5734 47.3651 16.6429 47.3999C16.9038 47.5303 17.1755 47.6542 17.4581 47.7759C17.5103 47.7977 17.5668 47.8194 17.6234 47.8499C17.9364 47.9868 18.2494 48.1172 18.5733 48.2433C18.6473 48.2651 18.7255 48.302 18.8016 48.3303C19.0951 48.4412 19.3973 48.5542 19.6973 48.6607L19.806 48.6999C20.1386 48.8129 20.4668 48.9216 20.806 49.0238C20.8842 49.0455 20.9646 49.0738 21.0473 49.0955C21.3929 49.1998 21.7277 49.3238 22.0777 49.389C44.4102 53.439 50.8993 36.0282 50.8993 36.0282C45.4472 43.0934 35.7711 44.9564 26.6081 42.8825C26.269 42.8042 25.9298 42.6955 25.5864 42.5955C25.1016 42.4583 24.6209 42.3068 24.1451 42.1412L24.3516 42.2042L24.2168 42.1521C23.9212 42.0521 23.6364 41.9412 23.3472 41.8303C23.2765 41.8003 23.2047 41.7728 23.132 41.7477L23.1081 41.7412C22.7886 41.6129 22.4777 41.4825 22.169 41.3455C22.1016 41.3238 22.0451 41.2934 21.9777 41.2673C21.612 41.1079 21.2497 40.9412 20.8907 40.7673L21.1907 40.8999C21.1124 40.8653 21.0356 40.8276 20.9603 40.7868C20.7559 40.6912 20.5516 40.5825 20.3516 40.4803C20.1993 40.4081 20.0492 40.3313 19.9016 40.2499L19.9451 40.2716C19.6994 40.1412 19.4538 39.9999 19.206 39.8673C19.132 39.8151 19.0473 39.7716 18.9625 39.7238C18.5941 39.5097 18.2303 39.2879 17.8712 39.0586L18.0081 39.1412C17.9161 39.0844 17.8262 39.0242 17.7386 38.9608L17.7516 38.9695C17.518 38.826 17.2889 38.6752 17.0647 38.5173C16.9907 38.4695 16.9234 38.4173 16.8473 38.3651C16.613 38.2052 16.3825 38.04 16.156 37.8695L16.2081 37.9064C16.1168 37.8325 16.019 37.7629 15.9212 37.6912C15.7299 37.5412 15.5364 37.3977 15.3451 37.2412L15.0886 37.0369C14.8152 36.8193 14.547 36.5954 14.2842 36.3651L14.2821 36.363L13.5277 35.6782L13.3103 35.4738C13.1321 35.2934 12.9495 35.1217 12.7668 34.9434L12.556 34.726C12.3309 34.5031 12.1113 34.2748 11.8973 34.0412L11.8842 34.026L11.8473 33.9956C11.6171 33.7428 11.3903 33.487 11.1668 33.2282C11.1082 33.1608 11.0538 33.0891 10.9929 33.0173L10.4995 32.4195C10.277 32.1401 10.0596 31.8567 9.84729 31.5695L9.76033 31.4478C4.67774 24.5434 2.83861 15.0152 6.90599 7.19788L3.3147 11.7392C-1.30485 18.3456 -0.733113 26.9369 2.79948 33.9521C2.87992 34.1238 2.96905 34.2847 3.05601 34.4477Z" fill="#1266A9"/>
<path d="M18.6147 24.9305L18.5908 24.8957L18.5712 24.8696L18.6147 24.9305Z" fill="black"/>
<path d="M21.0451 27.7825L21.2408 27.9782C21.4886 28.2173 21.7429 28.4499 22.0016 28.6825L22.0342 28.7108C22.2951 28.9412 22.5886 29.1825 22.8908 29.4173L22.9364 29.4521C23.0103 29.5021 23.0734 29.5608 23.1451 29.6108C23.4494 29.8456 23.756 30.0695 24.0755 30.2934L24.1081 30.313C24.2429 30.4108 24.3864 30.4999 24.5386 30.5956C24.5994 30.6347 24.669 30.6869 24.7342 30.726C24.9647 30.8738 25.1907 31.0108 25.4233 31.1521C25.4603 31.1673 25.4929 31.1869 25.5277 31.2021C25.7233 31.3217 25.9364 31.4369 26.1407 31.5412C26.2125 31.5847 26.282 31.6173 26.356 31.6586C26.5016 31.7304 26.6451 31.8064 26.7842 31.8804L26.8538 31.9108C27.1473 32.0543 27.4473 32.189 27.7407 32.3217C27.8146 32.3499 27.8777 32.3738 27.9407 32.4043C28.182 32.5086 28.4277 32.6086 28.669 32.6999C28.7777 32.7369 28.8799 32.7803 28.982 32.813C29.2038 32.8956 29.4364 32.9716 29.6559 33.0477L29.9603 33.1456C30.2777 33.2434 30.5994 33.3716 30.9364 33.4238C48.182 36.2629 52.1732 23.0521 52.1732 23.0521C48.5798 28.1978 41.6255 30.6499 34.2146 28.7347C33.8447 28.6414 33.4778 28.5363 33.1146 28.4195L33.2385 28.4543C33.1342 28.426 33.0429 28.3934 32.9429 28.363C32.7168 28.2847 32.4842 28.2086 32.2646 28.1282L31.9516 28.0108C31.7081 27.913 31.4603 27.8217 31.2233 27.7173C31.1494 27.6847 31.082 27.663 31.0255 27.6304C30.7212 27.4934 30.4146 27.3586 30.1168 27.2152L29.669 26.9825L29.4103 26.8521C29.2103 26.7478 29.0255 26.6391 28.8342 26.5282C28.7854 26.5053 28.7382 26.4791 28.6929 26.4499L28.6994 26.4521C28.469 26.3086 28.2299 26.1695 28.0081 26.0239C27.9342 25.9825 27.8668 25.9325 27.7973 25.8891L27.3451 25.5956C27.032 25.3782 26.7255 25.1456 26.4146 24.9195C26.3451 24.8565 26.2777 24.8043 26.2103 24.7478C22.9516 22.1978 20.3821 18.713 19.1625 14.7674C17.8777 10.6652 18.1603 6.06524 20.3799 2.33264L17.6516 6.1761C14.3017 10.9609 14.4908 17.3565 17.0995 22.4173C17.5756 23.3521 18.0582 24.1413 18.5908 24.8934C19.0864 25.6021 19.6342 26.4325 20.2951 27.0021C20.5299 27.2695 20.7821 27.5238 21.0451 27.7825Z" fill="#1266A9"/>
<path d="M29.7081 2.01521C27.732 4.89998 27.5429 8.48257 28.9037 11.663C30.3494 15.0412 33.3037 17.6934 36.7472 18.9499C36.8885 19.0043 37.0255 19.0499 37.1711 19.1021L37.3624 19.1608C37.5624 19.2238 37.7646 19.2977 37.9711 19.3434C47.495 21.1717 50.0732 14.4782 50.7667 13.4934C48.4993 16.7325 44.6972 17.5108 40.032 16.3825C39.6263 16.2836 39.227 16.1602 38.8363 16.013L38.9081 16.0369C38.4219 15.8686 37.9457 15.6727 37.482 15.4499L37.5646 15.4869C36.6733 15.0521 35.9081 14.5825 35.1972 14.0434C31.0277 10.8913 28.4494 4.88911 31.1711 0L29.7081 2.01521Z" fill="#1266A9"/>
</g>
</svg>
