<svg width="49" height="50" viewBox="0 0 49 50" fill="none" xmlns="http://www.w3.org/2000/svg">
<g opacity="0.7">
<path fill-rule="evenodd" clip-rule="evenodd" d="M48.3692 29.951C48.0777 29.0683 47.3141 28.4534 46.3266 28.3058C45.861 28.2363 45.3277 28.2659 44.6967 28.3961C43.5969 28.623 42.7809 28.7093 42.1854 28.7261C44.4331 24.931 46.2609 20.6031 47.3131 16.5292C49.0145 9.94193 48.1053 6.94099 47.0429 5.58351C44.2311 1.99078 40.1288 0.0605923 35.1795 0.00142462C32.5395 -0.0307976 30.2217 0.490484 29.0127 0.86525C27.8869 0.666752 26.6764 0.555827 25.4063 0.535281C23.0258 0.497333 20.9222 1.01626 19.1249 2.08285C18.1296 1.74648 16.5327 1.27213 14.6884 0.969327C10.3506 0.257182 6.8547 0.812145 4.29757 2.61861C1.2011 4.80591 -0.23442 8.60611 0.0311044 13.9138C0.115309 15.599 1.05806 20.7262 2.54231 25.5888C3.39535 28.3836 4.30499 30.7046 5.24594 32.4877C6.5803 35.0162 8.00807 36.5053 9.61099 37.0399C10.5095 37.3394 12.1418 37.5489 13.8588 36.1192C14.0764 36.3826 14.3666 36.6445 14.7521 36.8877C15.2413 37.1963 15.8398 37.4485 16.4373 37.5979C18.591 38.1364 20.6083 38.0017 22.3293 37.2471C22.3399 37.5531 22.3481 37.8456 22.355 38.0981C22.3665 38.5078 22.3777 38.9094 22.3928 39.2849C22.4947 41.8248 22.6675 43.7995 23.1795 45.1811C23.2075 45.2573 23.2454 45.373 23.2853 45.4957C23.5406 46.2778 23.9678 47.5869 25.0543 48.6123C26.1796 49.6743 27.5406 50.0001 28.787 50C29.4122 50 30.0087 49.918 30.5317 49.8059C32.3967 49.4063 34.5146 48.7973 36.0467 46.6159C37.4951 44.5535 38.1993 41.4474 38.3267 36.553C38.3432 36.4147 38.3585 36.2825 38.3732 36.1566C38.3831 36.0716 38.3932 35.9847 38.4034 35.898L38.7447 35.928L38.8326 35.9339C40.7321 36.0205 43.0545 35.6177 44.4808 34.9551C45.6079 34.4321 49.2195 32.5254 48.3692 29.951Z" fill="black"/>
<path fill-rule="evenodd" clip-rule="evenodd" d="M45.1214 30.4518C39.4739 31.6168 39.0857 29.7046 39.0857 29.7046C45.0486 20.8567 47.5413 9.62547 45.3901 6.8767C39.5216 -0.621423 29.363 2.92471 29.1935 3.01677L29.1389 3.02654C28.0231 2.79492 26.7744 2.65694 25.371 2.63403C22.8156 2.59215 20.8772 3.30396 19.4063 4.41939C19.4063 4.41939 1.28429 -3.04617 2.12712 13.8087C2.30641 17.3945 7.26651 40.9402 13.1827 33.8283C15.3451 31.2277 17.4344 29.0289 17.4344 29.0289C18.4721 29.7182 19.7144 30.0699 21.0168 29.9436L21.1179 29.8577C21.0865 30.1806 21.1008 30.4964 21.1584 30.8703C19.6343 32.5731 20.0822 32.8721 17.0355 33.4992C13.9526 34.1346 15.7636 35.2657 16.9461 35.5613C18.3796 35.9198 21.696 36.4276 23.9368 33.2907L23.8475 33.6487C24.4447 34.1269 24.864 36.7598 24.7937 39.1465C24.7234 41.5333 24.6765 43.172 25.147 44.4519C25.6176 45.7318 26.0865 48.6116 30.0917 47.7534C33.4385 47.0362 35.1728 45.1776 35.414 42.0774C35.5852 39.8734 35.9727 40.1992 35.9972 38.2287L36.3079 37.2958C36.6663 34.3082 36.3649 33.3443 38.4268 33.7926L38.9278 33.8366C40.4454 33.9057 42.4316 33.5925 43.5973 33.0507C46.1075 31.8858 47.5963 29.9407 45.1212 30.4518H45.1214Z" fill="#336791"/>
<path fill-rule="evenodd" clip-rule="evenodd" d="M20.4671 15.4123C19.9583 15.3414 19.4973 15.407 19.2641 15.5835C19.1328 15.6829 19.0923 15.7979 19.0814 15.8772C19.0521 16.087 19.1992 16.319 19.2894 16.4387C19.545 16.7774 19.9184 17.0102 20.288 17.0616C20.3416 17.069 20.3948 17.0726 20.4478 17.0726C21.0641 17.0726 21.6244 16.5927 21.6738 16.2385C21.7355 15.7949 21.0915 15.4992 20.4671 15.4123Z" fill="white"/>
<path fill-rule="evenodd" clip-rule="evenodd" d="M37.327 15.4264H37.3269C37.2784 15.0787 36.6596 14.9795 36.0724 15.0611C35.4861 15.1429 34.9174 15.4075 34.9649 15.756C35.0031 16.027 35.4923 16.4897 36.0716 16.4896C36.1204 16.4896 36.1698 16.4863 36.2196 16.4794C36.6063 16.4258 36.89 16.1803 37.0247 16.0387C37.23 15.8231 37.3487 15.5827 37.327 15.4264Z" fill="white"/>
<path fill-rule="evenodd" clip-rule="evenodd" d="M47.0008 30.3194C46.7854 29.6682 46.0924 29.4586 44.9408 29.6965C41.5217 30.4021 40.2972 29.9133 39.8951 29.6172C42.5528 25.5685 44.7391 20.6746 45.9185 16.1084C46.4773 13.9454 46.7859 11.9368 46.8111 10.2996C46.8389 8.50235 46.533 7.18191 45.9016 6.37523C43.3565 3.12315 39.6213 1.37877 35.0998 1.33083C31.9914 1.29591 29.3651 2.09147 28.856 2.31512C27.7838 2.04847 26.6149 1.88478 25.3425 1.8639C23.0089 1.82617 20.9919 2.38484 19.3219 3.52351C18.5965 3.25361 16.7218 2.61006 14.4293 2.2408C10.4656 1.60253 7.31603 2.08608 5.06833 3.67845C2.38636 5.57855 1.14822 8.97502 1.38815 13.7733C1.46887 15.3878 2.38861 20.354 3.84029 25.11C5.75106 31.3698 7.82799 34.9136 10.0135 35.6425C10.2692 35.7278 10.5643 35.7875 10.8894 35.7875C11.6867 35.7875 12.664 35.4281 13.681 34.2056C15.3701 32.1735 16.9472 30.4706 17.5286 29.8519C18.3877 30.3131 19.3313 30.5705 20.2968 30.5964C20.2984 30.6216 20.301 30.6469 20.3033 30.672C20.1096 30.9017 19.9507 31.103 19.8153 31.2749C19.1465 32.1239 19.0073 32.3007 16.8544 32.744C16.242 32.8703 14.6153 33.2056 14.5916 34.3457C14.5657 35.5914 16.5142 36.1146 16.7363 36.17C17.5099 36.3637 18.2552 36.4592 18.966 36.4592C20.6948 36.4591 22.2159 35.891 23.4317 34.7918C23.3942 39.2327 23.5795 43.6088 24.1127 44.9421C24.5493 46.0335 25.6162 48.7011 28.9863 48.7009C29.4807 48.7009 30.0251 48.6434 30.6238 48.5151C34.1409 47.7609 35.6681 46.2065 36.259 42.7795C36.5752 40.948 37.1178 36.5743 37.3729 34.2284C37.9114 34.3963 38.6048 34.4732 39.3544 34.4731C40.9176 34.4731 42.7214 34.141 43.8527 33.6159C45.1234 33.0258 47.4166 31.5775 47.0008 30.3194ZM38.6252 14.4664C38.6135 15.159 38.5182 15.7877 38.4171 16.4441C38.3085 17.1499 38.196 17.8797 38.1677 18.7656C38.1397 19.6278 38.2474 20.5242 38.3516 21.3909C38.562 23.1417 38.7779 24.9442 37.942 26.7228C37.8121 26.4921 37.6867 26.2404 37.5717 25.9616C37.4679 25.7098 37.2423 25.3053 36.9301 24.7454C35.7148 22.5662 32.8692 17.4629 34.3259 15.3805C34.7597 14.7605 35.8609 14.1234 38.6252 14.4664ZM35.2746 2.73319C39.3259 2.82267 42.5305 4.33823 44.7995 7.23756C46.5397 9.46146 44.6234 19.5806 39.0759 28.3103C39.0212 28.2407 38.9654 28.1704 38.9076 28.0984C38.8846 28.0695 38.8612 28.0402 38.8375 28.0106C40.271 25.6431 39.9906 23.3007 39.7412 21.2239C39.6387 20.3717 39.5419 19.5667 39.5665 18.8106C39.592 18.009 39.6979 17.3218 39.8003 16.6571C39.9264 15.838 40.0545 14.9905 40.0191 13.9914C40.0455 13.8867 40.0562 13.7628 40.0424 13.6159C39.9521 12.6577 38.8584 9.79064 36.6289 7.19524C35.4095 5.77589 33.631 4.18734 31.2027 3.11592C32.2472 2.89946 33.6755 2.6976 35.2746 2.73319ZM12.6049 33.3107C11.4845 34.6577 10.7107 34.3996 10.4563 34.3148C8.79838 33.7618 6.87482 30.2579 5.17883 24.7014C3.71131 19.8935 2.85366 15.059 2.78585 13.7033C2.57152 9.41581 3.61083 6.42767 5.87503 4.82195C9.55981 2.20881 15.618 3.77288 18.0523 4.56619C18.0173 4.60066 17.9809 4.633 17.9462 4.66802C13.9517 8.70232 14.0465 15.595 14.0562 16.0162C14.0559 16.1788 14.0695 16.4089 14.0882 16.7255C14.1569 17.8848 14.2848 20.0424 13.9432 22.4859C13.6255 24.7565 14.3254 26.9789 15.8631 28.5833C16.0223 28.7494 16.1885 28.9053 16.3602 29.0521C15.6756 29.7851 14.1881 31.406 12.6049 33.3107ZM16.8736 27.6149C15.6342 26.3218 15.0714 24.5231 15.3292 22.6796C15.69 20.0983 15.5567 17.8503 15.4852 16.6426C15.4752 16.4736 15.4664 16.3255 15.4611 16.2087C16.0447 15.6913 18.749 14.2422 20.6775 14.6841C21.5577 14.8858 22.0938 15.485 22.3168 16.5158C23.4707 21.8525 22.4696 24.0768 21.6651 25.8642C21.4993 26.2325 21.3427 26.5805 21.2089 26.9407L21.1052 27.219C20.8428 27.9228 20.5986 28.5772 20.4472 29.1986C19.1298 29.1946 17.8481 28.6318 16.8736 27.6149ZM17.0758 34.8121C16.6911 34.716 16.3451 34.5491 16.1421 34.4106C16.3117 34.3308 16.6134 34.2224 17.1368 34.1146C19.6695 33.5931 20.0606 33.2251 20.9147 32.1406C21.1106 31.892 21.3326 31.6101 21.64 31.2668C21.6401 31.2666 21.6402 31.2664 21.6403 31.2663C22.0983 30.7537 22.3077 30.8406 22.6875 30.9981C22.9954 31.1255 23.2951 31.5113 23.4167 31.9359C23.4742 32.1364 23.5389 32.5172 23.3275 32.8132C21.5431 35.3115 18.9431 35.2794 17.0758 34.8121ZM30.3305 47.1465C27.2321 47.8104 26.1351 46.2295 25.4121 44.4222C24.9455 43.2554 24.7163 37.994 24.879 32.1837C24.8811 32.1064 24.8701 32.0317 24.8488 31.9616C24.8302 31.826 24.8017 31.689 24.7622 31.551C24.5201 30.7056 23.9306 29.9984 23.2233 29.7052C22.9423 29.5888 22.4264 29.3751 21.8065 29.5337C21.9388 28.989 22.168 28.3741 22.4165 27.7081L22.5208 27.4279C22.6382 27.1121 22.7854 26.7849 22.9412 26.4386C23.7831 24.5684 24.936 22.0069 23.6847 16.22C23.216 14.0526 21.6509 12.9942 19.2782 13.24C17.8557 13.3872 16.5545 13.9611 15.9055 14.2902C15.7659 14.3609 15.6383 14.4292 15.519 14.4958C15.7001 12.3118 16.3846 8.23061 18.9449 5.64846C20.5568 4.02275 22.7037 3.21989 25.3194 3.26311C30.4733 3.34754 33.7782 5.99246 35.6434 8.19648C37.2506 10.0958 38.1209 12.0089 38.4683 13.0407C35.8563 12.7752 34.0798 13.2909 33.1792 14.5783C31.22 17.3788 34.251 22.8146 35.7078 25.427C35.9749 25.9058 36.2055 26.3195 36.278 26.4953C36.7523 27.645 37.3665 28.4125 37.8149 28.9729C37.9523 29.1445 38.0857 29.311 38.1871 29.4564C37.396 29.6846 35.975 30.2115 36.1044 32.8455C36 34.1673 35.2572 40.3553 34.88 42.5416C34.3819 45.4299 33.319 46.5058 30.3305 47.1465ZM43.2634 32.3464C42.4544 32.722 41.1007 33.0037 39.8146 33.0641C38.3941 33.1307 37.6711 32.905 37.501 32.7662C37.421 31.1248 38.0321 30.9532 38.6787 30.7717C38.7803 30.7431 38.8795 30.7153 38.9751 30.6819C39.0346 30.7303 39.0997 30.7783 39.171 30.8254C40.3127 31.5789 42.3491 31.6602 45.2239 31.0669C45.2344 31.0646 45.245 31.0626 45.2554 31.0605C44.8677 31.423 44.2042 31.9096 43.2634 32.3464Z" fill="white"/>
</g>
</svg>
