<svg width="70" height="44" viewBox="0 0 70 44" fill="none" xmlns="http://www.w3.org/2000/svg">
<g opacity="0.7">
<path d="M58.5747 13.4401C58.4654 11.0362 58.7932 8.90542 57.7006 7.10248C55.0781 2.62246 48.522 0 35.4097 0V0.382442H35.1365H35.4097V0C22.2975 0 15.4135 2.62246 12.7911 7.15712C11.753 9.01469 11.8623 11.0908 11.6984 13.4947C11.5891 15.4069 10.715 17.4284 11.0974 19.6138C11.5345 22.4548 11.6984 25.2958 12.1355 27.9182C12.4633 30.049 15.4135 31.8519 15.6867 33.8734C16.4516 39.4461 22.2428 42.0139 35.3551 42.0139V42.451H35.0273H35.4097V42.0139C48.522 42.0139 54.0947 39.4461 54.8049 33.8734C55.0781 31.7973 57.8098 30.049 58.1376 27.9182C58.5747 25.2958 58.7386 22.4548 59.1757 19.6138C59.5581 17.4284 58.684 15.3523 58.5747 13.4401V13.4401Z" fill="#EFCCA3"/>
<path d="M35.1911 15.407C37.5403 15.4616 39.1794 16.9367 40.7091 18.3026C42.5121 19.887 45.5716 20.9797 46.8282 22.3456C48.0848 23.7114 49.7238 25.0773 50.3248 27.208C50.9258 29.3388 51.0897 32.0705 51.0897 32.7807C51.0897 33.491 51.4721 33.3271 52.5648 32.7807C55.1326 31.5242 57.9736 28.1368 57.9736 28.1368C57.6458 30.2676 54.8595 32.1798 54.5863 34.2012C53.9307 39.774 48.5219 42.4511 35.1364 42.4511H35.0818H35.4096" fill="#CCAC8D"/>
<path d="M43.8233 11.1454C44.3151 12.839 46.0634 18.5756 42.676 16.6634C42.676 16.6634 44.0965 17.483 44.9707 20.5971C45.8995 23.7113 48.1395 24.0937 48.1395 24.0937C48.1395 24.0937 51.8 24.804 54.5317 22.4547C56.8263 20.4879 57.2088 16.9912 56.2254 14.3142C55.2419 11.6917 53.4936 10.8722 50.9258 10.3258C48.358 9.72486 43.2224 9.23315 43.8233 11.1454V11.1454Z" fill="#CCAC8D"/>
<path d="M50.3249 22.1816C52.9802 22.1816 55.1327 20.0291 55.1327 17.3738C55.1327 14.7185 52.9802 12.5659 50.3249 12.5659C47.6696 12.5659 45.5171 14.7185 45.5171 17.3738C45.5171 20.0291 47.6696 22.1816 50.3249 22.1816Z" fill="black"/>
<path d="M49.0684 16.4997C49.7624 16.4997 50.325 15.9371 50.325 15.2432C50.325 14.5492 49.7624 13.9866 49.0684 13.9866C48.3744 13.9866 47.8118 14.5492 47.8118 15.2432C47.8118 15.9371 48.3744 16.4997 49.0684 16.4997Z" fill="white"/>
<path d="M43.004 17.1552C43.004 17.1552 47.3201 20.1054 49.6694 23.001C52.0187 25.8967 51.964 26.443 51.964 26.443L50.2704 27.2079C50.2704 27.2079 47.8664 22.6732 44.9162 20.9796C41.9113 19.2859 41.5835 17.8654 41.5835 17.8654L43.004 17.1552V17.1552Z" fill="#EFCCA3"/>
<path d="M35.355 15.407C33.0057 15.4616 31.2574 16.9367 29.673 18.3026C27.87 19.887 24.7012 20.9797 23.4446 22.3456C22.1881 23.7114 20.4944 25.0773 19.8934 27.208C19.2924 29.3388 19.0739 32.0705 19.0739 32.7807C19.0739 33.491 19.1832 33.5456 17.5988 32.7807C15.0309 31.5788 12.1899 28.1368 12.1899 28.1368C12.5177 30.2676 15.3041 32.1798 15.5773 34.2012C16.3422 39.774 21.751 42.4511 35.1364 42.4511H35.4096" fill="#CCAC8D"/>
<path d="M48.0303 24.6403C45.4079 21.4169 41.201 18.412 35.3551 18.412H35.3005C29.4546 18.412 25.2477 21.4169 22.6253 24.6403C19.8935 27.973 20.1121 29.2842 20.1121 32.453C20.1121 43.9262 24.155 40.6482 26.8321 42.0687C29.5638 43.4345 32.4048 42.9975 35.3005 42.9975H35.3551C38.3054 42.9975 41.0917 43.3799 43.8235 42.014C46.5006 40.6482 50.5435 44.0355 50.5435 32.5623C50.5981 29.3935 50.7621 27.973 48.0303 24.6403V24.6403Z" fill="#56332B"/>
<path d="M35.0819 21.2527C35.0819 21.2527 34.6995 26.5523 33.9346 27.5904L35.3551 27.2626L35.0819 21.2527Z" fill="#442823"/>
<path d="M35.4643 21.2527C35.4643 21.2527 35.8468 26.5523 36.6116 27.5904L35.1912 27.2626L35.4643 21.2527Z" fill="#442823"/>
<path d="M30.8751 19.9963C30.3287 18.7397 32.2956 16.7182 35.4098 16.6636C38.5239 16.6636 40.4908 18.685 39.9444 19.9963C39.3981 21.3075 37.4312 21.6899 35.4098 21.7446C33.4429 21.6899 31.4214 21.3075 30.8751 19.9963V19.9963Z" fill="#56332B"/>
<path d="M35.4096 21.2528C35.4096 21.0342 37.2671 20.9796 38.2505 20.324C38.2505 20.324 36.2291 20.9796 35.792 20.7064C35.3549 20.4879 35.2457 19.8323 35.2457 19.8323C35.2457 19.8323 35.0818 20.4879 34.754 20.7064C34.3715 20.925 32.0769 20.324 32.0769 20.324C32.0769 20.324 35.1364 21.0889 35.1364 21.2528C35.1364 21.4167 35.0818 21.963 35.0818 22.3455C35.0818 23.7113 35.0818 27.0987 35.3003 27.3718C35.6281 27.8635 35.5188 23.7113 35.5188 22.3455C35.4642 21.9084 35.4642 21.4713 35.4096 21.2528V21.2528Z" fill="black"/>
<path d="M35.519 28.5737C36.4478 28.5737 38.0868 29.2293 39.5619 30.2673C38.1415 28.683 36.4478 27.5903 35.519 27.5903C34.5356 27.5903 32.4595 28.7923 30.9844 30.5405C32.5141 29.3386 34.481 28.5737 35.519 28.5737Z" fill="#7F4A41"/>
<path d="M35.1365 38.2441C33.0604 38.2441 31.039 37.5884 29.1814 37.0967C28.7989 36.9874 28.4165 37.2606 28.0341 37.1514C24.5921 36.0587 21.8057 34.2011 20.1121 31.8518V32.3981C20.1121 43.8714 24.155 40.648 26.8321 42.0138C29.5638 43.3797 32.4048 42.9426 35.3004 42.9426H35.3551C38.3053 42.9426 41.0917 43.3251 43.8234 41.9592C46.5005 40.5933 50.5435 43.9261 50.5435 32.4528C50.5435 32.0157 50.5435 31.5786 50.5981 31.1962C49.0137 33.764 46.1181 35.7855 42.5122 36.9875C42.1844 37.0967 41.4195 36.8235 41.0917 36.8782C39.1249 37.5338 37.3766 38.2441 35.1365 38.2441V38.2441Z" fill="#442823"/>
<path d="M29.9464 32.0704C29.9464 32.0704 28.5805 36.1681 29.5093 37.971L28.2527 37.4247C28.2527 37.4247 29.1815 33.2724 29.9464 32.0704V32.0704ZM40.764 32.0704C40.764 32.0704 42.1298 36.1681 41.2011 37.971L42.4577 37.4247C42.4577 37.4247 41.4742 33.2724 40.764 32.0704Z" fill="#442823"/>
<path d="M26.4495 11.1454C25.9578 12.839 24.2095 18.5756 27.5969 16.6634C27.5969 16.6634 26.1764 17.483 25.3022 20.5971C24.4281 23.7113 22.1334 24.0937 22.1334 24.0937C22.1334 24.0937 18.4729 24.804 15.7412 22.4547C13.4465 20.4879 13.0641 16.9912 14.0475 14.3142C15.0309 11.6371 16.7792 10.8722 19.3471 10.3258C21.9149 9.72486 26.9959 9.23315 26.4495 11.1454V11.1454Z" fill="#CCAC8D"/>
<path d="M35.3551 27.5905C36.8303 27.5905 41.4196 30.7593 41.4742 34.6383V34.4198C41.4742 30.3769 37.759 27.1534 35.3551 27.1534C32.9512 27.1534 29.2361 30.4315 29.2361 34.4198V34.6383C29.2907 30.7593 33.88 27.5905 35.3551 27.5905Z" fill="black"/>
<path d="M36.5477 20.0259C36.7815 19.9656 36.8793 19.5614 36.7662 19.1232C36.6532 18.6849 36.3721 18.3785 36.1383 18.4388C35.9046 18.4991 35.8067 18.9033 35.9198 19.3415C36.0329 19.7798 36.314 20.0862 36.5477 20.0259Z" fill="#331712"/>
<path d="M33.7397 20.0177C33.9702 20.0892 34.2659 19.7967 34.4 19.3645C34.5341 18.9322 34.4559 18.5238 34.2253 18.4523C33.9948 18.3807 33.6991 18.6732 33.565 19.1055C33.4309 19.5377 33.5091 19.9461 33.7397 20.0177Z" fill="#331712"/>
<path d="M20.2214 22.1816C22.8767 22.1816 25.0292 20.0291 25.0292 17.3738C25.0292 14.7185 22.8767 12.5659 20.2214 12.5659C17.5661 12.5659 15.4136 14.7185 15.4136 17.3738C15.4136 20.0291 17.5661 22.1816 20.2214 22.1816Z" fill="black"/>
<path d="M21.478 16.4997C22.172 16.4997 22.7346 15.9371 22.7346 15.2432C22.7346 14.5492 22.172 13.9866 21.478 13.9866C20.784 13.9866 20.2214 14.5492 20.2214 15.2432C20.2214 15.9371 20.784 16.4997 21.478 16.4997Z" fill="white"/>
<path d="M36.7755 17.4282C36.7755 17.3736 35.5189 17.9745 35.1911 18.0292C34.8633 17.9745 33.6067 17.3736 33.6067 17.4282H36.7755Z" fill="#7F4A41"/>
<path d="M27.2145 17.1552C27.2145 17.1552 22.8984 20.1054 20.5491 23.001C18.1999 25.8967 18.2545 26.443 18.2545 26.443L19.9482 27.2079C19.9482 27.2079 22.3521 22.6732 25.3023 20.9796C28.2526 19.2859 28.635 17.8654 28.635 17.8654L27.2145 17.1552Z" fill="#EFCCA3"/>
<path d="M17.7627 8.41367C17.7627 8.41367 16.2876 12.4566 13.0095 14.1503C13.0095 14.1503 18.1452 13.5493 17.7627 8.41367ZM52.2371 8.41367C52.2371 8.41367 53.7122 12.4566 56.9903 14.1503C56.9903 14.1503 51.8546 13.5493 52.2371 8.41367ZM42.8946 15.9532C42.8946 15.9532 39.6711 12.5659 35.355 12.4566H35.4097H35.4643C31.0935 12.5659 27.9247 15.9532 27.9247 15.9532C31.6945 13.3308 34.9179 13.3854 35.4643 13.3854C35.4097 13.3854 39.1248 13.3308 42.8946 15.9532V15.9532ZM39.1248 8.85075C39.1248 8.85075 37.4858 6.5561 35.3004 6.50146H35.4097C33.7706 6.5561 31.6399 8.85075 31.6399 8.85075C33.4975 7.04781 35.4097 7.10244 35.4097 7.10244C35.4097 7.10244 37.2126 7.04781 39.1248 8.85075ZM20.2213 25.6235C20.2213 25.6235 17.6535 26.8801 15.7959 26.1152H15.7412C14.1022 25.1865 13.2827 22.4001 13.2827 22.4001C13.2827 22.4001 14.9217 27.3172 20.2213 25.6235V25.6235ZM50.161 25.6235C50.161 25.6235 52.7288 26.8801 54.5864 26.1152C56.7717 25.1865 57.0995 22.4001 57.0995 22.4001C57.0995 22.4001 55.4605 27.3172 50.161 25.6235V25.6235Z" fill="#CCAC8D"/>
<path d="M23.1715 8.1407C24.592 7.86752 26.9413 7.81289 28.7989 8.41387C31.1481 9.23339 29.2359 12.2383 29.7276 12.4022C30.2194 12.5661 30.875 10.3261 35.2457 10.5446C39.6711 10.7632 40.1628 12.73 40.7638 12.4022C41.3648 12.0744 40.1628 6.93874 46.7736 8.1407C46.7736 8.1407 39.835 6.28312 40.1628 11.3095C40.1628 11.3095 36.1745 8.24997 30.6018 10.9817C30.6564 10.9817 32.0769 6.28312 23.1715 8.1407V8.1407ZM47.3746 8.1407C47.4839 8.1407 47.5385 8.19533 47.5931 8.19533C47.6478 8.19533 47.5385 8.1407 47.3746 8.1407ZM21.2593 1.42065C21.2593 1.42065 15.3588 8.85095 14.4846 11.6919C13.6105 14.5876 12.9549 26.4433 12.19 28.1369L9.45825 16.4451L14.4846 4.26165L21.2593 1.42065V1.42065ZM49.0136 1.42065C49.0136 1.42065 54.9141 8.85095 55.7883 11.6919C56.6624 14.5876 57.3181 26.4433 58.0829 28.1369L60.8147 16.4451L55.7883 4.26165L49.0136 1.42065V1.42065Z" fill="#CCAC8D"/>
<path d="M48.7404 1.4204C48.7404 1.4204 55.0781 6.71995 56.9357 12.839C58.7933 18.9581 58.0284 26.3884 59.4489 27.3171C61.4704 28.6284 63.765 20.8156 64.5299 19.9961C65.7319 18.6849 69.7202 15.3522 69.9934 14.7512C70.2666 14.1502 61.9074 5.02628 58.2469 3.22334C53.8215 1.14723 48.358 0.983326 48.7404 1.4204V1.4204Z" fill="#56332B"/>
<path d="M54.1494 4.69836C54.1494 4.69836 61.6343 14.2594 61.5251 26.1697L64.53 20.0506C64.4753 20.0506 61.8529 12.2379 54.1494 4.69836V4.69836Z" fill="#442823"/>
<path d="M21.2594 1.4204C21.2594 1.4204 14.9218 6.71995 13.0642 12.839C11.2066 18.9581 11.9715 26.3884 10.551 27.3171C8.52952 28.6284 6.23487 20.8156 5.46999 19.9961C4.26803 18.6849 0.27971 15.3522 0.00653732 14.7512C-0.266635 14.1502 8.09244 5.02628 11.753 3.22334C16.1783 1.14723 21.6418 0.983326 21.2594 1.4204V1.4204Z" fill="#56332B"/>
<path d="M15.8506 4.69836C15.8506 4.69836 8.36566 14.2594 8.47493 26.1697L5.52466 20.0506C5.52466 20.0506 8.14712 12.2379 15.8506 4.69836Z" fill="#442823"/>
<path d="M11.8076 26.3885C11.8076 26.3885 12.354 29.3388 13.2281 30.2676C14.1023 31.1964 13.5013 29.5573 13.5013 29.5573C13.5013 29.5573 12.5725 29.0656 12.7364 25.2958C12.9003 21.526 11.8076 26.3885 11.8076 26.3885V26.3885ZM58.4108 26.3885C58.4108 26.3885 57.8645 29.3388 56.9903 30.2676C56.1162 31.1964 56.7172 29.5573 56.7172 29.5573C56.7172 29.5573 57.646 29.0656 57.482 25.2958C57.3181 21.526 58.4108 26.3885 58.4108 26.3885V26.3885Z" fill="#CCAC8D"/>
<path d="M29.6731 24.5857C29.9145 24.5857 30.1102 24.39 30.1102 24.1485C30.1102 23.9071 29.9145 23.7114 29.6731 23.7114C29.4318 23.7114 29.2361 23.9071 29.2361 24.1485C29.2361 24.39 29.4318 24.5857 29.6731 24.5857Z" fill="#442823"/>
<path d="M27.16 27.2081C27.4014 27.2081 27.5971 27.0124 27.5971 26.7711C27.5971 26.5297 27.4014 26.334 27.16 26.334C26.9186 26.334 26.7229 26.5297 26.7229 26.7711C26.7229 27.0124 26.9186 27.2081 27.16 27.2081Z" fill="#442823"/>
<path d="M26.3404 24.5857C26.5818 24.5857 26.7775 24.39 26.7775 24.1485C26.7775 23.9071 26.5818 23.7114 26.3404 23.7114C26.099 23.7114 25.9033 23.9071 25.9033 24.1485C25.9033 24.39 26.099 24.5857 26.3404 24.5857Z" fill="#442823"/>
<path d="M40.3268 24.5857C40.5682 24.5857 40.7639 24.39 40.7639 24.1485C40.7639 23.9071 40.5682 23.7114 40.3268 23.7114C40.0854 23.7114 39.8896 23.9071 39.8896 24.1485C39.8896 24.39 40.0854 24.5857 40.3268 24.5857Z" fill="#442823"/>
<path d="M42.8399 27.2081C43.0813 27.2081 43.277 27.0124 43.277 26.7711C43.277 26.5297 43.0813 26.334 42.8399 26.334C42.5985 26.334 42.4028 26.5297 42.4028 26.7711C42.4028 27.0124 42.5985 27.2081 42.8399 27.2081Z" fill="#442823"/>
<path d="M43.6595 24.5857C43.9009 24.5857 44.0965 24.39 44.0965 24.1485C44.0965 23.9071 43.9009 23.7114 43.6595 23.7114C43.4181 23.7114 43.2224 23.9071 43.2224 24.1485C43.2224 24.39 43.4181 24.5857 43.6595 24.5857Z" fill="#442823"/>
</g>
</svg>
