<svg width="51" height="50" viewBox="0 0 51 50" fill="none" xmlns="http://www.w3.org/2000/svg">
<g opacity="0.7">
<path d="M24.9496 0C12.1901 0 12.9868 5.53326 12.9868 5.53326L13.001 11.2659H25.1771V12.987H8.16479C8.16479 12.987 0 12.061 0 24.9352C0 37.8098 7.12643 37.3532 7.12643 37.3532H11.3795V31.3789C11.3795 31.3789 11.1502 24.2525 18.3921 24.2525H30.4687C30.4687 24.2525 37.2537 24.3621 37.2537 17.695V6.67141C37.2537 6.67141 38.2841 0 24.9496 0ZM18.2357 3.85508C18.5234 3.85482 18.8084 3.9113 19.0742 4.02129C19.3401 4.13128 19.5817 4.29262 19.7852 4.49608C19.9886 4.69953 20.1499 4.94111 20.2599 5.20699C20.3699 5.47287 20.4264 5.75782 20.4261 6.04555C20.4264 6.33328 20.3699 6.61824 20.2599 6.88412C20.1499 7.15 19.9886 7.39158 19.7852 7.59503C19.5817 7.79849 19.3401 7.95983 19.0742 8.06982C18.8084 8.17981 18.5234 8.23629 18.2357 8.23603C17.9479 8.23629 17.663 8.17981 17.3971 8.06982C17.1312 7.95983 16.8897 7.79849 16.6862 7.59503C16.4827 7.39158 16.3214 7.15 16.2114 6.88412C16.1014 6.61824 16.0449 6.33328 16.0452 6.04555C16.0449 5.75782 16.1014 5.47287 16.2114 5.20699C16.3214 4.94111 16.4827 4.69953 16.6862 4.49608C16.8897 4.29262 17.1312 4.13128 17.3971 4.02129C17.663 3.9113 17.9479 3.85482 18.2357 3.85508V3.85508Z" fill="url(#paint0_linear_6_303)"/>
<path d="M25.312 50.0001C38.0715 50.0001 37.2748 44.4668 37.2748 44.4668L37.2606 38.7343H25.0843V37.0133H42.0966C42.0966 37.0133 50.2614 37.9392 50.2614 25.0646C50.2614 12.1902 43.1349 12.6468 43.1349 12.6468H38.8819V18.6209C38.8819 18.6209 39.1112 25.7473 31.8692 25.7473H19.7927C19.7927 25.7473 13.0077 25.6377 13.0077 32.305V43.3288C13.0077 43.3288 11.9774 50.0001 25.3118 50.0001H25.312ZM32.0259 46.1454C31.7382 46.1456 31.4532 46.0891 31.1873 45.9792C30.9215 45.8692 30.6799 45.7078 30.4764 45.5044C30.273 45.3009 30.1116 45.0593 30.0016 44.7935C29.8916 44.5276 29.8352 44.2426 29.8354 43.9549C29.8351 43.6671 29.8916 43.3822 30.0016 43.1163C30.1116 42.8504 30.2729 42.6088 30.4764 42.4053C30.6798 42.2018 30.9214 42.0404 31.1873 41.9304C31.4532 41.8204 31.7382 41.764 32.0259 41.7642C32.3136 41.764 32.5986 41.8204 32.8645 41.9304C33.1303 42.0404 33.3719 42.2018 33.5754 42.4052C33.7788 42.6087 33.9402 42.8502 34.0502 43.1161C34.1602 43.382 34.2166 43.667 34.2164 43.9547C34.2166 44.2424 34.1602 44.5274 34.0502 44.7933C33.9402 45.0591 33.7788 45.3007 33.5754 45.5042C33.3719 45.7076 33.1303 45.869 32.8645 45.979C32.5986 46.0889 32.3136 46.1454 32.0259 46.1452V46.1454Z" fill="url(#paint1_linear_6_303)"/>
</g>
<defs>
<linearGradient id="paint0_linear_6_303" x1="4.8301" y1="4.49719" x2="29.7381" y2="29.1567" gradientUnits="userSpaceOnUse">
<stop stop-color="#387EB8"/>
<stop offset="1" stop-color="#366994"/>
</linearGradient>
<linearGradient id="paint1_linear_6_303" x1="20.1187" y1="20.3321" x2="46.867" y2="45.6182" gradientUnits="userSpaceOnUse">
<stop stop-color="#FFE052"/>
<stop offset="1" stop-color="#FFC331"/>
</linearGradient>
</defs>
</svg>
