<svg width="53" height="50" viewBox="0 0 53 50" fill="none" xmlns="http://www.w3.org/2000/svg">
<g opacity="0.7">
<path d="M26.6533 34.0313C39.7167 34.0313 50.3066 29.9878 50.3066 25C50.3066 20.0122 39.7167 15.9688 26.6533 15.9688C13.5899 15.9688 3 20.0122 3 25C3 29.9878 13.5899 34.0313 26.6533 34.0313Z" stroke="#61DAFB" stroke-width="5"/>
<path d="M18.832 29.5156C25.3637 40.8288 34.1604 47.9783 38.48 45.4844C42.7995 42.9904 41.0063 31.7976 34.4746 20.4844C27.9429 9.17116 19.1462 2.02172 14.8266 4.51563C10.5071 7.00955 12.3003 18.2024 18.832 29.5156Z" stroke="#61DAFB" stroke-width="5"/>
<path d="M18.832 20.4844C12.3003 31.7976 10.5071 42.9904 14.8267 45.4844C19.1462 47.9783 27.9429 40.8288 34.4746 29.5156C41.0063 18.2024 42.7996 7.00953 38.48 4.51562C34.1604 2.0217 25.3637 9.17115 18.832 20.4844Z" stroke="#61DAFB" stroke-width="5"/>
</g>
</svg>
