<svg width="67" height="50" viewBox="0 0 67 50" fill="none" xmlns="http://www.w3.org/2000/svg">
<path opacity="0.7" d="M57.6922 28.743C55.3548 28.7552 53.3233 29.3154 51.6223 30.1435C50.9982 28.9135 50.374 27.8175 50.2639 27.0138C50.1415 26.0761 49.9947 25.5037 50.1415 24.3834C50.2884 23.263 50.9492 21.6677 50.937 21.5459C50.9247 21.4241 50.7901 20.8518 49.444 20.8396C48.0978 20.8274 46.9352 21.0953 46.8006 21.4485C46.666 21.8016 46.409 22.6054 46.2377 23.4335C46.0051 24.6513 43.5453 28.9988 42.138 31.276C41.6852 30.3871 41.2936 29.6077 41.2079 28.9866C41.0855 28.0489 40.9387 27.4765 41.0855 26.3562C41.2324 25.2358 41.8932 23.6405 41.881 23.5187C41.8688 23.397 41.7341 22.8246 40.388 22.8124C39.0418 22.8002 37.8792 23.0681 37.7446 23.4213C37.61 23.7745 37.4631 24.6026 37.1817 25.4063C36.9002 26.21 33.6327 33.4681 32.7761 35.3435C32.3355 36.3055 31.9561 37.0727 31.6869 37.5964C31.6869 37.5964 31.6747 37.6329 31.6379 37.6938C31.4054 38.1444 31.2708 38.3879 31.2708 38.3879C31.2708 38.3879 31.2708 38.3879 31.2708 38.4001C31.0872 38.7289 30.8914 39.0334 30.7935 39.0334C30.7201 39.0334 30.5855 38.1566 30.818 36.9631C31.3075 34.4423 32.4701 30.521 32.4579 30.3871C32.4579 30.314 32.6782 29.632 31.6991 29.2789C30.7446 28.9257 30.4019 29.5103 30.3163 29.5103C30.2306 29.5103 30.1694 29.7173 30.1694 29.7173C30.1694 29.7173 31.2341 25.3089 28.1379 25.3089C26.2044 25.3089 23.5365 27.4157 22.2148 29.3154C21.3827 29.766 19.6082 30.728 17.7113 31.7632C16.9893 32.165 16.2428 32.5669 15.5452 32.9444C15.4963 32.8957 15.4473 32.8348 15.3984 32.7861C11.6536 28.8039 4.727 25.9908 5.02071 20.6447C5.13085 18.6963 5.80393 13.5816 18.3232 7.37084C28.6274 2.31701 36.8268 3.71747 38.2464 6.82283C40.2778 11.2556 33.853 19.4878 23.2061 20.6813C19.1431 21.1319 17.0138 19.5731 16.4753 18.9886C15.9124 18.3797 15.8267 18.3431 15.6187 18.4649C15.276 18.6476 15.4963 19.1956 15.6187 19.5122C15.9368 20.3403 17.2463 21.8016 19.4613 22.5201C21.4194 23.1534 26.1799 23.5066 31.9439 21.2902C38.3932 18.8059 43.4352 11.901 41.9544 6.11652C40.4736 0.24677 30.6834 -1.68952 21.4194 1.58634C15.9124 3.5348 9.94031 6.60363 5.64484 10.598C0.541672 15.3474 -0.266023 19.4757 0.0643977 21.2049C1.25147 27.3426 9.75674 31.3369 13.1589 34.2962C12.9875 34.3936 12.8284 34.4788 12.6938 34.5519C10.9928 35.3922 4.50672 38.7655 2.89133 42.3336C1.05566 46.3766 3.18504 49.275 4.59239 49.6647C8.96129 50.8703 13.4526 48.7026 15.8634 45.1223C18.2743 41.542 17.9806 36.8901 16.8669 34.7589C16.8547 34.7346 16.8424 34.7102 16.818 34.6859C17.2585 34.4301 17.7113 34.1622 18.1519 33.9065C19.0208 33.395 19.8774 32.9201 20.6117 32.5304C20.1956 33.6629 19.8896 35.0147 19.7428 36.9631C19.5592 39.2526 20.5015 42.224 21.7376 43.3931C22.2883 43.9045 22.9369 43.9167 23.3529 43.9167C24.797 43.9167 25.4456 42.7233 26.1676 41.3106C27.0488 39.5814 27.8442 37.572 27.8442 37.572C27.8442 37.572 26.853 43.0034 29.5453 43.0034C30.5243 43.0034 31.5156 41.7369 31.9561 41.0914C31.9561 41.1036 31.9561 41.1036 31.9561 41.1036C31.9561 41.1036 31.9806 41.0671 32.0296 40.9818C32.1275 40.8235 32.1886 40.7261 32.1886 40.7261C32.1886 40.7261 32.1886 40.7139 32.1886 40.7017C32.5803 40.0198 33.4614 38.4732 34.7708 35.9036C36.4596 32.5913 38.0873 28.4508 38.0873 28.4508C38.0873 28.4508 38.2341 29.4615 38.7359 31.1421C39.0296 32.1285 39.6415 33.2123 40.131 34.2596C39.7394 34.8076 39.4946 35.1121 39.4946 35.1121C39.4946 35.1121 39.4946 35.1121 39.5069 35.1243C39.1887 35.5383 38.846 35.9889 38.4666 36.4273C37.1327 38.0104 35.5418 39.8249 35.3215 40.3486C35.0645 40.9697 35.1257 41.4202 35.6152 41.7856C35.9701 42.0535 36.6065 42.09 37.2551 42.0535C38.4544 41.9682 39.2988 41.676 39.7149 41.4933C40.3635 41.2619 41.1222 40.9088 41.832 40.3851C43.1415 39.4231 43.9369 38.047 43.8635 36.2325C43.8268 35.2339 43.4964 34.2353 43.0925 33.2976C43.2149 33.1271 43.3251 32.9566 43.4474 32.7861C45.5156 29.7782 47.1188 26.478 47.1188 26.478C47.1188 26.478 47.2656 27.4887 47.7674 29.1693C48.0121 30.0217 48.5139 30.9472 48.9544 31.8484C47.0086 33.4194 45.8093 35.246 45.381 36.4395C44.61 38.6559 45.2097 39.6544 46.3478 39.8858C46.8618 39.9954 47.596 39.7519 48.1345 39.5205C48.8198 39.3013 49.6275 38.9238 50.3985 38.3636C51.708 37.4015 52.9684 36.062 52.895 34.2475C52.8583 33.4194 52.638 32.6034 52.3321 31.8119C53.9842 31.1299 56.1136 30.7524 58.8304 31.069C64.6556 31.751 65.8059 35.3678 65.5856 36.8901C65.3654 38.4123 64.1416 39.2404 63.7377 39.4961C63.3339 39.7519 63.1993 39.8371 63.236 40.0198C63.2849 40.2877 63.4807 40.2755 63.8234 40.2268C64.3007 40.1416 66.8829 38.9968 66.993 36.1959C67.1766 32.6156 63.75 28.7065 57.6922 28.743ZM12.755 43.8193C10.8214 45.9139 8.12911 46.7054 6.96652 46.0357C5.71827 45.3172 6.20778 42.224 8.58191 40.0076C10.026 38.6559 11.8861 37.4015 13.1221 36.6343C13.4036 36.4638 13.8197 36.2203 14.3214 35.9158C14.4071 35.8671 14.4561 35.8428 14.4561 35.8428C14.554 35.7819 14.6519 35.721 14.7498 35.6601C15.6187 38.8263 14.7865 41.6151 12.755 43.8193ZM26.8285 34.2962C26.1554 35.928 24.7481 40.105 23.8914 39.8736C23.1571 39.6788 22.7043 36.5125 23.7446 33.3828C24.2708 31.8119 25.3844 29.9365 26.033 29.2058C27.0855 28.0367 28.2481 27.647 28.5295 28.122C28.8844 28.743 27.2446 33.2732 26.8285 34.2962ZM38.4422 39.8249C38.1607 39.9711 37.8915 40.0685 37.7691 39.9954C37.6834 39.9467 37.8915 39.7519 37.8915 39.7519C37.8915 39.7519 39.3478 38.1931 39.9229 37.4868C40.2534 37.0727 40.645 36.5856 41.0611 36.0376C41.0611 36.0863 41.0611 36.1472 41.0611 36.1959C41.0611 38.0591 39.2499 39.3135 38.4422 39.8249ZM47.4002 37.7912C47.1922 37.6451 47.2289 37.158 47.9265 35.6357C48.1957 35.039 48.8321 34.0404 49.9212 33.0784C50.0436 33.4681 50.1293 33.8456 50.117 34.1987C50.1048 36.5491 48.416 37.4259 47.4002 37.7912Z" fill="#CD6799"/>
</svg>
