<svg width="66" height="40" viewBox="0 0 66 40" fill="none" xmlns="http://www.w3.org/2000/svg">
<path opacity="0.7" d="M33 0C24.1997 0 18.6999 4.44454 16.4996 13.3328C19.8 8.88824 23.6501 7.22216 28.0498 8.33288C30.5604 8.96662 32.3546 10.807 34.3411 12.8433C37.5763 16.1604 41.3208 19.9996 49.5004 19.9996C58.2999 19.9996 63.8005 15.555 66 6.66597C62.7004 11.1105 58.8503 12.7774 54.4498 11.6667C51.94 11.033 50.1458 9.1926 48.1593 7.15629C44.9241 3.83915 41.1788 0 33 0ZM16.4996 19.9996C7.70014 19.9996 2.19945 24.4441 0 33.3332C3.29959 28.8887 7.14966 27.2217 11.5502 28.3333C14.06 28.9679 15.8542 30.8074 17.8407 32.8429C21.0759 36.16 24.8212 40 33 40C41.8003 40 47.3001 35.5555 49.5004 26.6664C46.2 31.1109 42.3499 32.7778 37.9502 31.6663C35.4396 31.0334 33.6454 29.1922 31.6589 27.1567C28.4237 23.8396 24.6792 19.9996 16.4996 19.9996Z" fill="#06B6D4"/>
</svg>
